<svg width="16" height="16" viewBox="0 0 16 16" fill="none" xmlns="http://www.w3.org/2000/svg">
<g opacity="0.8">
<path d="M13.4618 10.1912C13.424 10.2825 13.3599 10.3606 13.2777 10.4156C13.1955 10.4705 13.0988 10.4999 12.9999 10.4999H2.99991C2.90096 10.5 2.80421 10.4707 2.72191 10.4158C2.63962 10.3608 2.57547 10.2827 2.53759 10.1913C2.49972 10.0999 2.48982 9.99929 2.50914 9.90225C2.52847 9.80521 2.57615 9.71608 2.64616 9.64615L7.64616 4.64615C7.69259 4.59967 7.74774 4.56279 7.80844 4.53763C7.86913 4.51246 7.9342 4.49951 7.99991 4.49951C8.06561 4.49951 8.13068 4.51246 8.19138 4.53763C8.25207 4.56279 8.30722 4.59967 8.35366 4.64615L13.3537 9.64615C13.4236 9.71612 13.4711 9.80524 13.4904 9.90225C13.5096 9.99926 13.4997 10.0998 13.4618 10.1912Z" fill="#007BFF"/>
</g>
</svg>
