<svg width="223" height="153" viewBox="0 0 223 153" fill="none" xmlns="http://www.w3.org/2000/svg">
<path d="M222.455 145.922H0.544434V146.033H222.455V145.922Z" fill="#EBEBEB"/>
<path d="M38.5265 150.154H23.8271V150.265H38.5265V150.154Z" fill="#EBEBEB"/>
<path d="M101.097 148.95H76.5V149.061H101.097V148.95Z" fill="#EBEBEB"/>
<path d="M49.4491 152.795H40.9321V152.907H49.4491V152.795Z" fill="#EBEBEB"/>
<path d="M190.789 150.097H171.62V150.208H190.789V150.097Z" fill="#EBEBEB"/>
<path d="M197.553 150.097H194.743V150.208H197.553V150.097Z" fill="#EBEBEB"/>
<path d="M144.365 151.657H123.576V151.768H144.365V151.657Z" fill="#EBEBEB"/>
<path d="M105.735 126.093H20.0328C18.6347 126.093 17.4985 124.955 17.4985 123.554V2.87607C17.4985 1.47558 18.6347 0.337402 20.0328 0.337402H105.735C107.133 0.337402 108.269 1.47558 108.269 2.87607V123.554C108.269 124.955 107.133 126.093 105.735 126.093ZM20.0328 0.448553C18.6969 0.448553 17.6095 1.53782 17.6095 2.87607V123.554C17.6095 124.892 18.6969 125.982 20.0328 125.982H105.735C107.071 125.982 108.158 124.892 108.158 123.554V2.87607C108.158 1.53782 107.071 0.448553 105.735 0.448553H20.0328Z" fill="#EBEBEB"/>
<path d="M201.733 126.093H116.031C114.633 126.093 113.497 124.955 113.497 123.554V2.87607C113.497 1.47558 114.633 0.337402 116.031 0.337402H201.733C203.131 0.337402 204.268 1.47558 204.268 2.87607V123.554C204.268 124.955 203.131 126.093 201.733 126.093ZM116.031 0.448553C114.695 0.448553 113.608 1.53782 113.608 2.87607V123.554C113.608 124.892 114.695 125.982 116.031 125.982H201.733C203.069 125.982 204.157 124.892 204.157 123.554V2.87607C204.157 1.53782 203.069 0.448553 201.733 0.448553H116.031Z" fill="#EBEBEB"/>
<path d="M132.733 8.98047H47.0483V70.5977H132.733V8.98047Z" fill="#FAFAFA"/>
<path d="M127.855 70.5977L106.063 8.98047H89.7085L111.5 70.5977H127.855Z" fill="white"/>
<path d="M83.8767 70.5977L62.0851 8.98047H56.1201L77.9118 70.5977H83.8767Z" fill="white"/>
<path d="M42.9652 6.86426H136.82C137.029 6.86426 137.202 7.03765 137.202 7.24661C137.202 7.45558 137.029 7.62897 136.82 7.62897H42.9652C42.7566 7.62897 42.5835 7.45558 42.5835 7.24661C42.5835 7.03765 42.7566 6.86426 42.9652 6.86426Z" fill="#E0E0E0"/>
<path d="M90.4006 8.84717H89.3843V70.7311H90.4006V8.84717Z" fill="#F0F0F0"/>
<path d="M89.38 8.84717H88.874V70.7311H89.38V8.84717Z" fill="#E0E0E0"/>
<path d="M46.4536 39.2802V40.2983L133.323 40.2983V39.2802L46.4536 39.2802Z" fill="#F0F0F0"/>
<path d="M46.458 70.1753V8.38916H133.327V70.1753V71.1935H46.458V70.1753ZM132.311 70.1753V9.40285H47.4744V70.1753H132.311Z" fill="#F0F0F0"/>
<path d="M46.4537 8.38916H45.9478V71.1935H46.4537V8.38916Z" fill="#E0E0E0"/>
<path opacity="0.5" d="M59.0536 5.93066V78.2939H40.7148L44.079 5.93066H59.0536Z" fill="#EBEBEB"/>
<path opacity="0.5" d="M120.221 5.93066V78.2939H138.56L135.196 5.93066H120.221Z" fill="#EBEBEB"/>
<path d="M35.0205 86.9634H28.0259V143.797H35.0205V86.9634Z" fill="#F0F0F0"/>
<path d="M106.431 143.797H29.3706V145.922H106.431V143.797Z" fill="#F0F0F0"/>
<path d="M35.0246 143.792H107.776V86.9592H35.0246V143.792Z" fill="#F5F5F5"/>
<path d="M34.2969 85.1094H27.147V86.9634H34.2969V85.1094Z" fill="#F0F0F0"/>
<path d="M34.2925 86.959L108.65 86.959V85.105L34.2925 85.105V86.959Z" fill="#FAFAFA"/>
<path d="M105.259 118.943H37.5366V90.8535H105.259V118.943ZM38.0071 118.472H104.789V91.3248H38.0071V118.472Z" fill="#E0E0E0"/>
<path d="M105.259 139.902H37.5366V121.758H105.259V139.902ZM38.0071 139.431H104.789V122.229H38.0071V139.431Z" fill="#E0E0E0"/>
<path d="M95.5131 91.0894H47.283C46.9398 91.0894 46.6616 91.368 46.6616 91.7118V91.9741C46.6616 92.3179 46.9398 92.5966 47.283 92.5966H95.5131C95.8563 92.5966 96.1344 92.3179 96.1344 91.9741V91.7118C96.1344 91.368 95.8563 91.0894 95.5131 91.0894Z" fill="#E0E0E0"/>
<path d="M95.5131 121.994H47.283C46.9398 121.994 46.6616 122.272 46.6616 122.616V122.878C46.6616 123.222 46.9398 123.501 47.283 123.501H95.5131C95.8563 123.501 96.1344 123.222 96.1344 122.878V122.616C96.1344 122.272 95.8563 121.994 95.5131 121.994Z" fill="#E0E0E0"/>
<path d="M154.932 143.192H195.622L195.622 18.8287H154.932V143.192Z" fill="#F0F0F0"/>
<path d="M154.932 18.833H153.641V143.197H154.932V18.833Z" fill="#E0E0E0"/>
<path d="M161.536 138.448H189.022V23.5723H161.536V138.448Z" fill="#FAFAFA"/>
</svg>
