<svg width="97" height="14" viewBox="0 0 97 14" fill="none" xmlns="http://www.w3.org/2000/svg">
<g opacity="0.9">
<path opacity="0.9" d="M84.145 13.5103L89.7585 5.78472V7.64953L84.4114 0.190308H87.2086L91.1856 5.70861L90.0439 5.72763L93.9828 0.190308H96.6658L91.3569 7.51632V5.72763L97.0084 13.5103H94.1541L89.9678 7.64953H91.0905L86.9613 13.5103H84.145Z" fill="white"/>
<path opacity="0.9" d="M78.0706 9.20981V7.23083H83.3034V9.20981H78.0706Z" fill="white"/>
<path opacity="0.9" d="M70.3361 13.7006C69.2959 13.7006 68.3381 13.5357 67.4628 13.2059C66.6002 12.8633 65.8454 12.3876 65.1984 11.7787C64.5514 11.1571 64.0504 10.4277 63.6952 9.59042C63.34 8.75316 63.1624 7.83979 63.1624 6.8503C63.1624 5.86081 63.34 4.94744 63.6952 4.11018C64.0504 3.27292 64.5514 2.54983 65.1984 1.94092C65.8581 1.31932 66.6256 0.843603 67.5009 0.513773C68.3762 0.171258 69.334 0 70.3742 0C71.5032 0 72.5181 0.183943 73.4188 0.551829C74.3321 0.919717 75.0996 1.45886 75.7212 2.16926L74.1609 3.69155C73.6408 3.17144 73.0763 2.79086 72.4673 2.54983C71.8711 2.29612 71.2115 2.16926 70.4884 2.16926C69.7907 2.16926 69.1437 2.28343 68.5474 2.51178C67.9512 2.74012 67.4374 3.06361 67.0061 3.48224C66.5748 3.90087 66.2386 4.39561 65.9976 4.96647C65.7693 5.53733 65.6551 6.16527 65.6551 6.8503C65.6551 7.52265 65.7693 8.14425 65.9976 8.71511C66.2386 9.28597 66.5748 9.78705 67.0061 10.2184C67.4374 10.637 67.9449 10.9605 68.5284 11.1888C69.112 11.4172 69.7589 11.5313 70.4693 11.5313C71.129 11.5313 71.7633 11.4299 72.3722 11.2269C72.9938 11.0112 73.5837 10.656 74.1419 10.1613L75.55 12.0071C74.8523 12.5652 74.0404 12.9902 73.1143 13.282C72.2009 13.5611 71.2749 13.7006 70.3361 13.7006ZM73.2095 11.6836V6.69807H75.55V12.0071L73.2095 11.6836Z" fill="white"/>
<path opacity="0.9" d="M58.0371 13.5103V0.190308H60.5108V13.5103H58.0371Z" fill="white"/>
<path opacity="0.9" d="M48.1855 6.31752H54.8265V8.41067H48.1855V6.31752ZM48.3949 13.5103H45.9211V0.190308H55.6448V2.26443H48.3949V13.5103Z" fill="white"/>
<path opacity="0.9" d="M30.5164 13.5103V0.190308H32.5524L40.906 10.4467H39.8975V0.190308H42.3522V13.5103H40.3161L31.9625 3.25391H32.971V13.5103H30.5164Z" fill="white"/>
<path opacity="0.9" d="M20.7394 13.7006C19.6992 13.7006 18.7414 13.5293 17.8661 13.1868C16.9908 12.8443 16.2297 12.3686 15.5827 11.7597C14.9357 11.1381 14.4346 10.415 14.0794 9.59042C13.7242 8.75316 13.5466 7.83979 13.5466 6.8503C13.5466 5.86081 13.7242 4.95378 14.0794 4.12921C14.4346 3.29195 14.9357 2.56886 15.5827 1.95995C16.2297 1.33835 16.9908 0.856288 17.8661 0.513773C18.7414 0.171258 19.6929 0 20.7204 0C21.7606 0 22.7121 0.171258 23.5747 0.513773C24.45 0.856288 25.2112 1.33835 25.8581 1.95995C26.5051 2.56886 27.0062 3.29195 27.3614 4.12921C27.7166 4.95378 27.8942 5.86081 27.8942 6.8503C27.8942 7.83979 27.7166 8.75316 27.3614 9.59042C27.0062 10.4277 26.5051 11.1508 25.8581 11.7597C25.2112 12.3686 24.45 12.8443 23.5747 13.1868C22.7121 13.5293 21.767 13.7006 20.7394 13.7006ZM20.7204 11.5313C21.3928 11.5313 22.0144 11.4172 22.5852 11.1888C23.1561 10.9605 23.6508 10.637 24.0695 10.2184C24.4881 9.78705 24.8116 9.29231 25.0399 8.73414C25.2809 8.16328 25.4015 7.53533 25.4015 6.8503C25.4015 6.16527 25.2809 5.54367 25.0399 4.9855C24.8116 4.41464 24.4881 3.9199 24.0695 3.50127C23.6508 3.06995 23.1561 2.74012 22.5852 2.51178C22.0144 2.28343 21.3928 2.16926 20.7204 2.16926C20.0481 2.16926 19.4265 2.28343 18.8556 2.51178C18.2974 2.74012 17.8027 3.06995 17.3714 3.50127C16.9528 3.9199 16.6229 4.41464 16.3819 4.9855C16.1536 5.54367 16.0394 6.16527 16.0394 6.8503C16.0394 7.52265 16.1536 8.14425 16.3819 8.71511C16.6229 9.28597 16.9528 9.78705 17.3714 10.2184C17.79 10.637 18.2848 10.9605 18.8556 11.1888C19.4265 11.4172 20.0481 11.5313 20.7204 11.5313Z" fill="white"/>
<path opacity="0.9" d="M7.1167 13.7006C6.10184 13.7006 5.15676 13.5357 4.28144 13.2059C3.41881 12.8633 2.66401 12.3876 2.01703 11.7787C1.38275 11.1571 0.888002 10.4277 0.532801 9.59042C0.1776 8.75316 0 7.83979 0 6.8503C0 5.86081 0.1776 4.94744 0.532801 4.11018C0.888002 3.27292 1.38909 2.54983 2.03606 1.94092C2.68303 1.31932 3.43784 0.843603 4.30047 0.513773C5.1631 0.171258 6.10819 0 7.13573 0C8.2267 0 9.22254 0.190287 10.1232 0.570859C11.0239 0.938746 11.7851 1.49057 12.4067 2.22635L10.8083 3.72961C10.3262 3.20949 9.78705 2.82258 9.19082 2.56886C8.59459 2.30246 7.94762 2.16926 7.2499 2.16926C6.55219 2.16926 5.91156 2.28343 5.32801 2.51178C4.75715 2.74012 4.25607 3.06361 3.82475 3.48224C3.40612 3.90087 3.07629 4.39561 2.83526 4.96647C2.60692 5.53733 2.49275 6.16527 2.49275 6.8503C2.49275 7.53533 2.60692 8.16328 2.83526 8.73414C3.07629 9.30499 3.40612 9.79974 3.82475 10.2184C4.25607 10.637 4.75715 10.9605 5.32801 11.1888C5.91156 11.4172 6.55219 11.5313 7.2499 11.5313C7.94762 11.5313 8.59459 11.4045 9.19082 11.1508C9.78705 10.8844 10.3262 10.4848 10.8083 9.95197L12.4067 11.4743C11.7851 12.1973 11.0239 12.7492 10.1232 13.1297C9.22254 13.5103 8.22036 13.7006 7.1167 13.7006Z" fill="white"/>
</g>
</svg>
