<svg width="148" height="36" viewBox="0 0 148 36" fill="none" xmlns="http://www.w3.org/2000/svg">
<path d="M32.3086 25.5833C31.6381 27.2993 30.6765 28.9146 29.4515 30.3175C28.8406 31.0196 28.1727 31.6764 27.447 32.2663C26.722 32.8574 25.9457 33.3892 25.1277 33.8535C23.4912 34.7794 21.6854 35.4254 19.8161 35.7532C18.8808 35.9139 17.9302 35.9993 16.9782 36H16.6212L16.4423 35.9987L16.2641 35.9898C16.0263 35.9764 15.7878 35.9681 15.5494 35.9502L14.8365 35.8775C14.5993 35.8488 14.3634 35.808 14.1269 35.7736C13.1833 35.6154 12.2512 35.3782 11.3435 35.0632L11.005 34.9401C10.8929 34.8974 10.7775 34.8617 10.6679 34.8126L10.0025 34.5339L9.35117 34.2233C9.24091 34.1736 9.13771 34.1124 9.0313 34.0563L8.71334 33.8847C7.03062 32.9467 5.49726 31.7242 4.21455 30.2684C2.9344 28.8112 1.89912 27.1303 1.17603 25.3141C0.461918 23.4948 0.0631922 21.5454 0.00549891 19.58C-0.0188605 18.598 0.0375509 17.6108 0.177938 16.6326L0.235631 16.2666C0.255503 16.1448 0.271528 16.0217 0.299093 15.9012L0.45166 15.1742L0.640125 14.4549C0.668972 14.3344 0.711922 14.2177 0.747179 14.0991L0.85936 13.7445C1.48694 11.8614 2.43759 10.0759 3.678 8.50395C4.91776 6.93267 6.42997 5.56673 8.13705 4.48393C9.84798 3.40815 11.7519 2.62315 13.741 2.17102C14.7365 1.94911 15.7519 1.81519 16.7718 1.76163C17.7917 1.70423 18.818 1.74058 19.8385 1.85792C21.8802 2.0894 23.8867 2.69138 25.7438 3.60137C27.5964 4.52156 29.3028 5.75167 30.749 7.24769C32.2029 8.73606 33.3939 10.4878 34.2651 12.3951L30.1355 14.1424C29.5522 12.6764 28.7175 11.2945 27.6566 10.0943C26.6034 8.8872 25.3271 7.86561 23.9162 7.07296C23.2078 6.68078 22.4655 6.34727 21.6982 6.07689L21.5546 6.02524L21.4091 5.97932L21.118 5.88686C20.9232 5.82755 20.7257 5.77654 20.5296 5.72106C20.3309 5.67578 20.1334 5.62285 19.9328 5.58268L19.6321 5.52273L19.4815 5.49276L19.3302 5.46853C18.5231 5.33525 17.7 5.26319 16.8757 5.26957C16.0513 5.27212 15.2269 5.33844 14.4122 5.47746C12.7852 5.76442 11.2006 6.32368 9.74669 7.13865C8.29731 7.96063 6.98126 9.03131 5.87676 10.2959C5.32226 10.9265 4.8293 11.6114 4.39404 12.332C3.95941 13.0526 3.58569 13.8121 3.27927 14.599L3.16902 14.8962C3.13376 14.9957 3.09145 15.0932 3.06196 15.1946L2.87029 15.7998L2.70939 16.4139C2.6799 16.5159 2.66131 16.6205 2.63952 16.7238L2.57477 17.035C2.41259 17.8678 2.32092 18.7159 2.29849 19.5698C2.26387 21.2769 2.52413 22.9923 3.07094 24.6242C3.628 26.2522 4.46968 27.7922 5.55239 29.1562C6.63766 30.5184 7.96782 31.6943 9.46015 32.6259L9.74285 32.7962C9.83772 32.8517 9.92939 32.9135 10.0275 32.9633L10.6095 33.277L11.2063 33.5627C11.3051 33.6131 11.4089 33.6507 11.5102 33.6947L11.816 33.8229C12.6358 34.1532 13.4859 34.4153 14.3538 34.6053C14.5718 34.6481 14.7891 34.6971 15.0083 34.7348L15.6686 34.8349C15.8898 34.8617 16.1115 34.8808 16.3333 34.9044L16.5 34.9216L16.6673 34.9305L17.0019 34.9471C17.8943 34.9911 18.7924 34.9548 19.6821 34.8464C21.4616 34.6238 23.2104 34.0971 24.8252 33.2859C25.6316 32.8791 26.406 32.4034 27.1361 31.8664C27.8675 31.3301 28.5483 30.7237 29.1791 30.0681C30.4432 28.7577 31.4708 27.2164 32.2214 25.5456L32.3118 25.5826L32.3086 25.5833Z" fill="#007BFF"/>
<path d="M30.7104 6.506L27.9761 4.3488L29.824 3.25299L31.446 4.53316L30.7104 6.506Z" fill="#007BFF"/>
<path d="M34.6647 12.1445L32.3135 8.0744L34.7713 7.37344L36.0002 9.27704L34.6647 12.1445Z" fill="#007BFF"/>
<path d="M19.7353 1.3012H16.916L17.4893 0H19.162L19.7353 1.3012Z" fill="#007BFF"/>
<path d="M34.0902 12.1446C34.8098 13.8578 34.5098 15.6462 33.4202 16.1387C32.3306 16.6311 30.8641 15.6411 30.1445 13.9279" fill="#007BFF"/>
<path d="M35.5262 20.7218L34.4971 22.0478C34.4186 22.1484 34.2654 22.1439 34.1934 22.0388L31.0469 17.4293C30.9252 17.2506 31.1498 17.041 31.3191 17.1752L35.2855 20.3219C35.2907 20.3258 35.2952 20.3296 35.301 20.3329L35.4799 20.4477C35.5732 20.5077 35.5945 20.6347 35.5269 20.7218H35.5262Z" fill="#007BFF"/>
<path d="M35.842 23.1379L36.9173 21.9675C37.0055 21.871 37.1529 21.8859 37.2241 21.998L40.5173 27.1984C40.6502 27.4084 40.4002 27.6533 40.2225 27.4874L36.6452 24.1566L35.8578 23.4612C35.7658 23.3796 35.7582 23.2292 35.842 23.1379Z" fill="#007BFF"/>
<path d="M25.3735 3.03612L22.5542 1.92927L23.6393 0.650574L25.3114 1.30711L25.3735 3.03612Z" fill="#007BFF"/>
<path d="M14.5306 1.64019L11.9282 2.38551L12.1288 1.09241L13.6725 0.650574L14.5306 1.64019Z" fill="#007BFF"/>
<path d="M9.7595 3.12755L7.6985 4.33735L7.59082 3.10275L8.81402 2.38554L9.7595 3.12755Z" fill="#007BFF"/>
<path d="M6.07234 5.59052L4.57155 6.93971L4.3374 6.00503L5.22751 5.20477L6.07234 5.59052Z" fill="#007BFF"/>
<path d="M3.25294 8.56538L2.19908 10.1928L1.73486 9.42298L2.35995 8.45784L3.25294 8.56538Z" fill="#007BFF"/>
<path d="M31.6288 26.5314C31.2269 26.1831 31.5628 26.176 31.9095 25.7723L37.762 17.9043C38.2081 17.3847 38.8625 17.1993 39.2631 17.48L39.4183 17.5888C39.8067 17.8611 39.7688 18.523 39.3362 19.0277L32.4165 26.1271C32.0698 26.5307 32.032 26.8803 31.6295 26.532L31.6288 26.5314Z" fill="#007BFF"/>
<path d="M29.2774 20.0603C29.2774 21.4774 29.0111 22.8983 28.486 24.2235C27.9647 25.5507 27.1848 26.7776 26.2024 27.8291C25.218 28.8781 24.0286 29.7509 22.7012 30.3711C22.0375 30.6805 21.3419 30.9319 20.6246 31.1093C19.9072 31.288 19.1688 31.3964 18.4253 31.4328C16.9388 31.5036 15.4154 31.2854 13.9851 30.7654C12.5556 30.246 11.2224 29.43 10.1007 28.3753C8.97713 27.3225 8.06688 26.0305 7.44662 24.6032C6.82637 23.1765 6.50699 21.6139 6.50635 20.0603C6.50635 18.5066 6.82637 16.944 7.44662 15.5174C8.06688 14.0907 8.97713 12.798 10.1007 11.7452C11.2224 10.6906 12.5556 9.8745 13.9851 9.35513C15.4154 8.83448 16.9388 8.61691 18.4253 8.68773C19.1688 8.72474 19.9066 8.83257 20.6246 9.01122C21.3426 9.1886 22.0382 9.44063 22.7012 9.74944C24.0286 10.3696 25.218 11.2425 26.2024 12.2914C27.1848 13.3429 27.9654 14.5699 28.486 15.897C29.0111 17.2216 29.2781 18.6432 29.2774 20.0603ZM27.5764 20.0603C27.5751 18.8614 27.3272 17.667 26.8475 16.5759C26.3672 15.4855 25.662 14.4984 24.7932 13.6996C23.9258 12.8988 22.898 12.2882 21.8057 11.908C20.7121 11.5277 19.5572 11.3809 18.4259 11.4511C17.2934 11.5232 16.1985 11.8186 15.2097 12.3023C14.2196 12.7833 13.3355 13.4507 12.6054 14.2458C11.8772 15.0427 11.3023 15.9653 10.9209 16.9555C10.5364 17.9445 10.3409 18.9973 10.3403 20.0596C10.3403 21.122 10.5357 22.1748 10.9209 23.1637C11.3023 24.154 11.8772 25.076 12.6054 25.8735C13.3355 26.6685 14.2196 27.3359 15.2097 27.817C16.1985 28.3006 17.2934 28.5967 18.4259 28.6681C19.5572 28.7383 20.7121 28.5916 21.8057 28.2113C22.898 27.831 23.9258 27.2204 24.7932 26.4197C25.6626 25.6208 26.3672 24.6338 26.8475 23.5434C27.3272 22.4523 27.5751 21.2579 27.5764 20.059V20.0603Z" fill="#007BFF"/>
<path opacity="0.9" d="M134.088 25L139.908 17.06V18.6L134.408 11H136.688L141.048 16.98L140.148 17L144.488 11H146.668L141.208 18.48V17.04L147.028 25H144.728L140.088 18.62H140.968L136.388 25H134.088Z" fill="white"/>
<path opacity="0.9" d="M127.664 20.34V18.68H133.044V20.34H127.664Z" fill="white"/>
<path opacity="0.9" d="M119.494 25.16C118.414 25.16 117.421 24.9867 116.514 24.64C115.608 24.28 114.821 23.78 114.154 23.14C113.488 22.4867 112.968 21.7267 112.594 20.86C112.221 19.9933 112.034 19.04 112.034 18C112.034 16.96 112.221 16.0067 112.594 15.14C112.968 14.2733 113.488 13.52 114.154 12.88C114.834 12.2267 115.628 11.7267 116.534 11.38C117.441 11.02 118.441 10.84 119.534 10.84C120.641 10.84 121.654 11.02 122.574 11.38C123.494 11.74 124.274 12.28 124.914 13L123.674 14.24C123.101 13.68 122.474 13.2733 121.794 13.02C121.128 12.7533 120.401 12.62 119.614 12.62C118.814 12.62 118.068 12.7533 117.374 13.02C116.694 13.2867 116.101 13.66 115.594 14.14C115.101 14.62 114.714 15.1933 114.434 15.86C114.168 16.5133 114.034 17.2267 114.034 18C114.034 18.76 114.168 19.4733 114.434 20.14C114.714 20.7933 115.101 21.3667 115.594 21.86C116.101 22.34 116.694 22.7133 117.374 22.98C118.054 23.2467 118.794 23.38 119.594 23.38C120.341 23.38 121.054 23.2667 121.734 23.04C122.428 22.8 123.068 22.4067 123.654 21.86L124.794 23.38C124.101 23.9667 123.288 24.4133 122.354 24.72C121.434 25.0133 120.481 25.16 119.494 25.16ZM122.874 23.12V17.92H124.794V23.38L122.874 23.12Z" fill="white"/>
<path opacity="0.9" d="M106.983 25V11H108.983V25H106.983Z" fill="white"/>
<path opacity="0.9" d="M96.0876 17.62H103.308V19.34H96.0876V17.62ZM96.2876 25H94.2876V11H104.168V12.74H96.2876V25Z" fill="white"/>
<path opacity="0.9" d="M78.0571 25V11H79.6971L88.9571 22.5H88.0971V11H90.0971V25H88.4571L79.1971 13.5H80.0571V25H78.0571Z" fill="white"/>
<path opacity="0.9" d="M67.5801 25.16C66.5135 25.16 65.5201 24.98 64.6001 24.62C63.6935 24.26 62.9068 23.76 62.2401 23.12C61.5735 22.4667 61.0535 21.7067 60.6801 20.84C60.3068 19.9733 60.1201 19.0267 60.1201 18C60.1201 16.9733 60.3068 16.0267 60.6801 15.16C61.0535 14.2933 61.5735 13.54 62.2401 12.9C62.9068 12.2467 63.6935 11.74 64.6001 11.38C65.5068 11.02 66.5001 10.84 67.5801 10.84C68.6468 10.84 69.6268 11.02 70.5201 11.38C71.4268 11.7267 72.2135 12.2267 72.8801 12.88C73.5601 13.52 74.0801 14.2733 74.4401 15.14C74.8135 16.0067 75.0001 16.96 75.0001 18C75.0001 19.04 74.8135 19.9933 74.4401 20.86C74.0801 21.7267 73.5601 22.4867 72.8801 23.14C72.2135 23.78 71.4268 24.28 70.5201 24.64C69.6268 24.9867 68.6468 25.16 67.5801 25.16ZM67.5801 23.38C68.3535 23.38 69.0668 23.2467 69.7201 22.98C70.3868 22.7133 70.9601 22.34 71.4401 21.86C71.9335 21.3667 72.3135 20.7933 72.5801 20.14C72.8601 19.4867 73.0001 18.7733 73.0001 18C73.0001 17.2267 72.8601 16.5133 72.5801 15.86C72.3135 15.2067 71.9335 14.64 71.4401 14.16C70.9601 13.6667 70.3868 13.2867 69.7201 13.02C69.0668 12.7533 68.3535 12.62 67.5801 12.62C66.7935 12.62 66.0668 12.7533 65.4001 13.02C64.7468 13.2867 64.1735 13.6667 63.6801 14.16C63.1868 14.64 62.8001 15.2067 62.5201 15.86C62.2535 16.5133 62.1201 17.2267 62.1201 18C62.1201 18.7733 62.2535 19.4867 62.5201 20.14C62.8001 20.7933 63.1868 21.3667 63.6801 21.86C64.1735 22.34 64.7468 22.7133 65.4001 22.98C66.0668 23.2467 66.7935 23.38 67.5801 23.38Z" fill="white"/>
<path opacity="0.9" d="M53.36 25.16C52.2933 25.16 51.3066 24.9867 50.4 24.64C49.5066 24.28 48.7266 23.78 48.06 23.14C47.4066 22.4867 46.8933 21.7267 46.52 20.86C46.1466 19.9933 45.96 19.04 45.96 18C45.96 16.96 46.1466 16.0067 46.52 15.14C46.8933 14.2733 47.4133 13.52 48.08 12.88C48.7466 12.2267 49.5266 11.7267 50.42 11.38C51.3266 11.02 52.3133 10.84 53.38 10.84C54.46 10.84 55.4533 11.0267 56.36 11.4C57.28 11.76 58.06 12.3 58.7 13.02L57.4 14.28C56.8666 13.72 56.2666 13.3067 55.6 13.04C54.9333 12.76 54.22 12.62 53.46 12.62C52.6733 12.62 51.94 12.7533 51.26 13.02C50.5933 13.2867 50.0133 13.66 49.52 14.14C49.0266 14.62 48.64 15.1933 48.36 15.86C48.0933 16.5133 47.96 17.2267 47.96 18C47.96 18.7733 48.0933 19.4933 48.36 20.16C48.64 20.8133 49.0266 21.38 49.52 21.86C50.0133 22.34 50.5933 22.7133 51.26 22.98C51.94 23.2467 52.6733 23.38 53.46 23.38C54.22 23.38 54.9333 23.2467 55.6 22.98C56.2666 22.7 56.8666 22.2733 57.4 21.7L58.7 22.96C58.06 23.68 57.28 24.2267 56.36 24.6C55.4533 24.9733 54.4533 25.16 53.36 25.16Z" fill="white"/>
</svg>
