<svg width="223" height="166" viewBox="0 0 223 166" fill="none" xmlns="http://www.w3.org/2000/svg">
<g clip-path="url(#clip0_421_3437)">
<path d="M222.456 145.922H0.544922V146.033H222.456V145.922Z" fill="#EBEBEB"/>
<path d="M38.527 150.154H23.8276V150.265H38.527V150.154Z" fill="#EBEBEB"/>
<path d="M101.097 148.95H76.5005V149.061H101.097V148.95Z" fill="#EBEBEB"/>
<path d="M49.4496 152.795H40.9326V152.907H49.4496V152.795Z" fill="#EBEBEB"/>
<path d="M190.789 150.097H171.621V150.208H190.789V150.097Z" fill="#EBEBEB"/>
<path d="M197.553 150.097H194.744V150.208H197.553V150.097Z" fill="#EBEBEB"/>
<path d="M144.365 151.657H123.577V151.768H144.365V151.657Z" fill="#EBEBEB"/>
<path d="M105.735 126.093H20.0332C18.6352 126.093 17.499 124.955 17.499 123.554V2.87607C17.499 1.47558 18.6352 0.337402 20.0332 0.337402H105.735C107.133 0.337402 108.269 1.47558 108.269 2.87607V123.554C108.269 124.955 107.133 126.093 105.735 126.093ZM20.0332 0.448553C18.6973 0.448553 17.61 1.53782 17.61 2.87607V123.554C17.61 124.892 18.6973 125.982 20.0332 125.982H105.735C107.071 125.982 108.159 124.892 108.159 123.554V2.87607C108.159 1.53782 107.071 0.448553 105.735 0.448553H20.0332Z" fill="#EBEBEB"/>
<path d="M201.734 126.093H116.032C114.634 126.093 113.498 124.955 113.498 123.554V2.87607C113.498 1.47558 114.634 0.337402 116.032 0.337402H201.734C203.132 0.337402 204.268 1.47558 204.268 2.87607V123.554C204.268 124.955 203.132 126.093 201.734 126.093ZM116.032 0.448553C114.696 0.448553 113.609 1.53782 113.609 2.87607V123.554C113.609 124.892 114.696 125.982 116.032 125.982H201.734C203.07 125.982 204.157 124.892 204.157 123.554V2.87607C204.157 1.53782 203.07 0.448553 201.734 0.448553H116.032Z" fill="#EBEBEB"/>
<path d="M132.733 8.98047H47.0488V70.5977H132.733V8.98047Z" fill="#FAFAFA"/>
<path d="M127.855 70.5977L106.064 8.98047H89.709L111.501 70.5977H127.855Z" fill="white"/>
<path d="M83.8772 70.5977L62.0856 8.98047H56.1206L77.9123 70.5977H83.8772Z" fill="white"/>
<path d="M42.9657 6.86426H136.821C137.029 6.86426 137.202 7.03765 137.202 7.24661C137.202 7.45558 137.029 7.62897 136.821 7.62897H42.9657C42.7571 7.62897 42.584 7.45558 42.584 7.24661C42.584 7.03765 42.7571 6.86426 42.9657 6.86426Z" fill="#E0E0E0"/>
<path d="M90.4011 8.84717H89.3848V70.7311H90.4011V8.84717Z" fill="#F0F0F0"/>
<path d="M89.3805 8.84717H88.8745V70.7311H89.3805V8.84717Z" fill="#E0E0E0"/>
<path d="M46.4541 39.2802V40.2983L133.323 40.2983V39.2802L46.4541 39.2802Z" fill="#F0F0F0"/>
<path d="M46.4585 70.1753V8.38916H133.328V70.1753V71.1935H46.4585V70.1753ZM132.311 70.1753V9.40285H47.4748V70.1753H132.311Z" fill="#F0F0F0"/>
<path d="M46.4542 8.38916H45.9482V71.1935H46.4542V8.38916Z" fill="#E0E0E0"/>
<path opacity="0.5" d="M59.0541 5.93066V78.2939H40.7153L44.0795 5.93066H59.0541Z" fill="#EBEBEB"/>
<path opacity="0.5" d="M120.222 5.93066V78.2939H138.56L135.196 5.93066H120.222Z" fill="#EBEBEB"/>
<path d="M35.021 86.9634H28.0264V143.797H35.021V86.9634Z" fill="#F0F0F0"/>
<path d="M106.432 143.797H29.3711V145.922H106.432V143.797Z" fill="#F0F0F0"/>
<path d="M35.0251 143.792H107.776V86.9592H35.0251V143.792Z" fill="#F5F5F5"/>
<path d="M34.2974 85.1094H27.1475V86.9634H34.2974V85.1094Z" fill="#F0F0F0"/>
<path d="M34.293 86.959L108.651 86.959V85.105L34.293 85.105V86.959Z" fill="#FAFAFA"/>
<path d="M105.26 118.943H37.5371V90.8535H105.26V118.943ZM38.0076 118.472H104.789V91.3248H38.0076V118.472Z" fill="#E0E0E0"/>
<path d="M105.26 139.902H37.5371V121.758H105.26V139.902ZM38.0076 139.431H104.789V122.229H38.0076V139.431Z" fill="#E0E0E0"/>
<path d="M95.5136 91.0894H47.2835C46.9403 91.0894 46.6621 91.368 46.6621 91.7118V91.9741C46.6621 92.3179 46.9403 92.5966 47.2835 92.5966H95.5136C95.8567 92.5966 96.1349 92.3179 96.1349 91.9741V91.7118C96.1349 91.368 95.8567 91.0894 95.5136 91.0894Z" fill="#E0E0E0"/>
<path d="M95.5136 121.994H47.2835C46.9403 121.994 46.6621 122.272 46.6621 122.616V122.878C46.6621 123.222 46.9403 123.501 47.2835 123.501H95.5136C95.8567 123.501 96.1349 123.222 96.1349 122.878V122.616C96.1349 122.272 95.8567 121.994 95.5136 121.994Z" fill="#E0E0E0"/>
<path d="M154.932 143.192H195.622L195.622 18.8287H154.932V143.192Z" fill="#F0F0F0"/>
<path d="M154.933 18.833H153.641V143.197H154.933V18.833Z" fill="#E0E0E0"/>
<path d="M161.537 138.448H189.022V23.5723H161.537V138.448Z" fill="#FAFAFA"/>
<path d="M111.5 166C159.026 166 197.553 163.747 197.553 160.967C197.553 158.188 159.026 155.935 111.5 155.935C63.9748 155.935 25.4478 158.188 25.4478 160.967C25.4478 163.747 63.9748 166 111.5 166Z" fill="#F5F5F5"/>
<path d="M64.1714 157.095L67.6465 155.774L65.5161 147.362L62.041 148.683L64.1714 157.095Z" fill="#B55B52"/>
<path d="M38.0615 157.161H41.7763L42.3355 148.541H38.6163L38.0615 157.161Z" fill="#B55B52"/>
<path d="M42.149 156.73H37.6176C37.4667 156.73 37.338 156.837 37.3158 156.983L36.7477 160.291C36.69 160.634 36.9741 160.958 37.3247 160.954C38.7804 160.927 39.8412 160.843 41.6786 160.843C42.8103 160.843 46.2189 160.958 47.7811 160.958C49.3434 160.958 49.4676 159.411 48.8241 159.273C45.9304 158.646 43.729 157.779 42.7704 156.957C42.5973 156.81 42.3798 156.73 42.1579 156.73H42.149Z" fill="#263238"/>
<path d="M67.4692 155.379L63.6745 156.819C63.5325 156.873 63.4481 157.019 63.4703 157.17L63.9541 160.527C64.0029 160.874 64.3624 161.087 64.6864 160.958C66.0445 160.416 67.2029 159.727 68.9338 159.104C70.9576 158.375 72.9681 157.597 74.6058 156.552C75.8929 155.73 75.3514 154.178 74.7434 154.423C71.9828 155.534 71.3038 155.899 68.4056 155.339C68.0905 155.276 67.7665 155.272 67.4647 155.388L67.4692 155.379Z" fill="#263238"/>
<path d="M57.665 43.7036C58.8367 45.7755 60.0661 47.9095 61.3088 49.9725C62.5515 52.0488 63.8253 54.0939 65.1789 56.0191C65.5073 56.5081 65.8713 56.9705 66.1953 57.424C66.3329 57.6241 66.3906 57.6819 66.4838 57.7574C66.5814 57.8286 66.8077 57.8953 67.1584 57.8641C67.5045 57.8419 67.9439 57.7397 68.4011 57.5707C69.3198 57.2328 70.3051 56.6815 71.2682 56.068C71.7475 55.7523 72.2312 55.4277 72.7106 55.0809C73.181 54.7386 73.6648 54.3562 74.0997 54.0228L76.1857 55.8812C75.7863 56.4637 75.3957 56.9572 74.9652 57.4685C74.5391 57.9753 74.0997 58.4732 73.6204 58.9401C73.1455 59.4158 72.6396 59.8737 72.0937 60.305C71.5478 60.7407 70.9619 61.1586 70.3051 61.5232C69.6438 61.8878 68.9203 62.2301 68.0504 62.4435C67.1894 62.6481 66.142 62.7281 65.0502 62.4346C63.954 62.1545 62.9687 61.4521 62.3163 60.7051C61.8724 60.1894 61.4375 59.7048 61.0292 59.1935C59.3826 57.1706 57.9269 55.0765 56.5466 52.9469C55.1752 50.8039 53.9058 48.652 52.7075 46.3712L57.6695 43.7036H57.665Z" fill="#E2A19B"/>
<path d="M51.0698 43.8726C50.0668 47.2871 57.1235 56.597 57.1235 56.597L64.238 52.0132C64.238 52.0132 62.1476 47.2649 59.3071 43.6414C56.3912 39.9201 52.1705 40.1246 51.0698 43.8726Z" fill="#407BFF"/>
<path opacity="0.2" d="M51.0698 43.8726C50.0668 47.2871 57.1235 56.597 57.1235 56.597L64.238 52.0132C64.238 52.0132 62.1476 47.2649 59.3071 43.6414C56.3912 39.9201 52.1705 40.1246 51.0698 43.8726Z" fill="black"/>
<path opacity="0.2" d="M55.4057 47.883C56.8703 48.5099 59.0228 52.04 60.1412 54.6543L57.1233 56.5972C57.1233 56.5972 54.4071 53.0137 52.5874 49.4747C53.5416 48.4254 54.6334 47.554 55.4057 47.883Z" fill="black"/>
<path d="M73.6558 55.179L74.9606 51.5244L78.6576 53.2939C78.6576 53.2939 77.8898 56.5528 75.1825 56.5484L73.6558 55.179Z" fill="#E2A19B"/>
<path d="M78.2497 49.1147L79.8163 50.8487L78.658 53.294L74.9609 51.5245L78.2497 49.1147Z" fill="#E2A19B"/>
<path opacity="0.2" d="M65.5161 147.362L66.6124 151.702L63.1373 153.022L62.041 148.687L65.5161 147.362Z" fill="black"/>
<path opacity="0.2" d="M38.6161 148.545H42.3354L42.0469 152.986H38.3276L38.6161 148.545Z" fill="black"/>
<path d="M34.5063 42.3656C38.5096 56.5084 37.8528 71.5136 38.1057 74.5636C41.0172 74.4569 51.9885 74.0434 57.9712 73.8167C61.3443 52.7381 55.2861 41.0007 55.2861 41.0007C55.2861 41.0007 54.0123 40.7517 52.277 40.5739C51.7311 40.5161 51.1452 40.4672 50.5372 40.436C50.1999 40.4138 49.8581 40.4049 49.512 40.396C47.2707 40.3605 43.6047 40.7161 41.0838 41.0274C40.5556 41.094 40.0186 41.1741 39.4993 41.2585C39.0156 41.343 38.5451 41.4275 38.0969 41.5164C36.073 41.921 34.5108 42.3612 34.5108 42.3612L34.5063 42.3656Z" fill="#407BFF"/>
<path opacity="0.2" d="M34.5063 42.3656C38.5096 56.5084 37.8528 71.5136 38.1057 74.5636C41.0172 74.4569 51.9885 74.0434 57.9712 73.8167C61.3443 52.7381 55.2861 41.0007 55.2861 41.0007C55.2861 41.0007 54.0123 40.7517 52.277 40.5739C51.7311 40.5161 51.1452 40.4672 50.5372 40.436C50.1999 40.4138 49.8581 40.4049 49.512 40.396C47.2707 40.3605 43.6047 40.7161 41.0838 41.0274C40.5556 41.094 40.0186 41.1741 39.4993 41.2585C39.0156 41.343 38.5451 41.4275 38.0969 41.5164C36.073 41.921 34.5108 42.3612 34.5108 42.3612L34.5063 42.3656Z" fill="black"/>
<path opacity="0.2" d="M38.7357 48.4297C39.0908 49.7991 38.6869 56.0413 37.2578 57.5796C37.0625 55.5789 36.8051 53.4937 36.4634 51.3596L38.7357 48.4297Z" fill="black"/>
<path d="M41.2078 31.4595C41.9401 34.136 42.8411 39.071 41.0791 41.0273C42.6635 42.3833 44.714 43.935 47.9406 43.8105C51.1672 43.686 50.4393 41.5075 49.5028 40.4004C46.4272 39.9024 46.3384 37.6483 46.7068 35.5009L41.2034 31.4639L41.2078 31.4595Z" fill="#E2A19B"/>
<path d="M48.0251 43.3525L48.6109 43.7482L46.4717 44.3707L47.022 43.3792L48.0251 43.3525Z" fill="#407BFF"/>
<path d="M48.8328 43.1436L48.6108 43.7482L50.7589 44.3707L50.6125 43.2191L48.8328 43.1436Z" fill="#407BFF"/>
<path d="M39.7966 40.8227L40.6443 40.3959C40.9195 40.258 41.2479 40.2847 41.492 40.467C42.3796 41.1295 44.7408 42.6856 48.0251 43.348C46.3252 44.1616 46.7469 46.3357 46.7469 46.3357C46.7469 46.3357 41.3544 44.5529 39.6235 41.3295C39.5259 41.1428 39.6102 40.9116 39.7966 40.8182V40.8227Z" fill="white"/>
<path d="M50.4485 40.2626L49.2103 40.0758C49.0682 40.0536 48.9662 40.2136 49.0505 40.3337C49.4854 40.9472 50.2044 42.3077 48.833 43.1436C50.5328 43.9572 51.0566 45.9401 51.0566 45.9401C51.0566 45.9401 53.2668 43.5526 50.6882 40.4004C50.626 40.3248 50.5417 40.2759 50.4441 40.2626H50.4485Z" fill="white"/>
<path opacity="0.2" d="M43.4495 33.1089L46.7072 35.4964C46.6184 36.0033 46.5563 36.519 46.5607 37.0125C45.3934 36.9325 43.7114 35.781 43.4983 34.5761C43.3918 33.9759 43.3741 33.3935 43.4539 33.1045L43.4495 33.1089Z" fill="black"/>
<path d="M50.6393 25.973C50.4884 27.2624 49.2546 28.3783 48.4512 28.6584L47.4526 23.0298C49.6939 21.447 50.8479 24.1591 50.6393 25.973Z" fill="#263238"/>
<path d="M40.0854 27.5246C40.7334 31.1614 40.9242 33.3266 42.988 34.9939C46.0903 37.5014 50.4131 35.3007 50.8658 31.5438C51.2742 28.1604 50.1468 22.7807 46.401 21.7359C42.7084 20.7044 39.4419 23.8878 40.0854 27.5246Z" fill="#E2A19B"/>
<path d="M40.7776 29.9789C42.4596 30.8726 43.2008 28.863 43.2141 28.0449C43.2363 26.7467 42.6771 25.3195 42.0069 24.7993C45.2557 24.7816 51.6778 24.6393 50.0579 21.5404C48.4379 18.4416 45.1936 18.7972 42.7481 20.4912C41.4566 21.3848 37.2758 20.6068 38.3099 23.0209C36.1307 24.1814 38.0214 28.5073 40.7776 29.9789Z" fill="#263238"/>
<path d="M38.6603 22.8208C38.6603 22.8208 37.9457 22.8875 37.0581 22.2739C37.3155 23.4254 38.4783 23.4521 38.4783 23.4521L38.6603 22.8208Z" fill="#263238"/>
<path d="M38.7182 30.5171C39.1576 31.4107 39.9653 32.0198 40.7465 32.2688C41.9181 32.6467 42.1844 31.5752 41.9004 30.4415C41.643 29.4234 41.0926 28.0362 39.8988 28.1518C38.7226 28.2629 38.2167 29.4945 38.7182 30.5171Z" fill="#E2A19B"/>
<path d="M62.2942 113.177C60.7852 101.915 57.9669 73.8164 57.9669 73.8164L44.9097 74.3055C44.9097 74.3055 51.0699 102.382 53.2979 113.768C55.5259 125.154 61.7261 152.631 61.7261 152.631L67.6112 150.399C67.6112 150.399 63.8653 124.883 62.2942 113.172V113.177Z" fill="#263238"/>
<path opacity="0.2" d="M49.7874 81.877C48.9707 82.0815 47.6836 82.5839 46.8848 83.3664C48.1186 89.0439 49.7297 96.5177 51.1099 103.102C52.0553 97.398 52.0819 86.6297 49.7874 81.877Z" fill="black"/>
<path d="M50.9235 74.0831C50.9235 74.0831 48.154 104.565 46.8847 115.395C45.4955 127.262 43.7602 152.124 43.7602 152.124H36.9519C36.9519 152.124 36.6679 130.129 37.5555 118.517C38.563 105.285 38.1059 74.5588 38.1059 74.5588L50.9235 74.0742V74.0831Z" fill="#263238"/>
<path d="M44.6611 152.275H36.6457L36.4771 149.874L45.4245 149.719L44.6611 152.275Z" fill="#407BFF"/>
<path d="M68.4012 150.257L61.3932 152.924L60.5322 150.653L68.3257 147.554L68.4012 150.257Z" fill="#407BFF"/>
<path d="M45.753 27.9072C45.7885 28.2051 45.9749 28.4274 46.1657 28.4052C46.3566 28.3829 46.4897 28.1206 46.4542 27.8227C46.4187 27.5248 46.2323 27.3025 46.0414 27.3248C45.8462 27.347 45.7175 27.6093 45.753 27.9072Z" fill="#263238"/>
<path d="M49.1171 27.5205C49.1526 27.8184 49.339 28.0407 49.5298 28.0184C49.7251 27.9962 49.8538 27.7339 49.8183 27.436C49.7828 27.1381 49.5964 26.9158 49.4056 26.9381C49.2147 26.9603 49.0816 27.2226 49.1171 27.5205Z" fill="#263238"/>
<path d="M48.0649 27.7915C48.0649 27.7915 48.9393 29.4365 49.7825 30.179C49.3121 30.7303 48.3889 30.6103 48.3889 30.6103L48.0649 27.7915Z" fill="#CC7775"/>
<path d="M47.2265 31.5529C46.077 31.5307 45.4601 30.8015 45.4335 30.7704C45.4024 30.7348 45.4068 30.677 45.4468 30.6459C45.4823 30.6148 45.54 30.6192 45.5711 30.6592C45.5799 30.6681 46.2989 31.5129 47.5993 31.3617C47.6481 31.3573 47.6925 31.3928 47.697 31.4373C47.7014 31.4862 47.6659 31.5307 47.6215 31.5351C47.4839 31.5529 47.3552 31.5573 47.231 31.5529H47.2265Z" fill="#263238"/>
<path d="M44.5897 26.9376C44.5587 26.9376 44.532 26.9288 44.5054 26.9154C44.4211 26.8665 44.3945 26.7598 44.4433 26.6753C44.9359 25.835 45.7481 25.7906 45.7836 25.7861C45.8813 25.7861 45.9611 25.8573 45.9656 25.9551C45.9656 26.0529 45.8946 26.1329 45.7969 26.1374C45.7703 26.1374 45.1356 26.1818 44.7451 26.8532C44.7096 26.911 44.6519 26.9421 44.5897 26.9421V26.9376Z" fill="#263238"/>
<path d="M50.4351 26.1911C50.3775 26.1911 50.3242 26.16 50.2887 26.1111C49.8715 25.4531 49.2368 25.4353 49.2102 25.4308C49.1126 25.4308 49.0371 25.3508 49.0371 25.253C49.0371 25.1552 49.117 25.0796 49.2146 25.0796C49.2501 25.0796 50.0623 25.0974 50.586 25.9199C50.6393 25.9999 50.6127 26.1111 50.5328 26.1644C50.5017 26.1822 50.4662 26.1911 50.4351 26.1911Z" fill="#263238"/>
<path d="M43.4096 157.383C43.0679 157.383 42.6906 157.312 42.4288 157.25C42.3933 157.241 42.3667 157.215 42.3578 157.179C42.3489 157.143 42.3667 157.108 42.3933 157.09C42.5264 157.006 43.6848 156.268 44.1064 156.481C44.173 156.512 44.2529 156.583 44.2706 156.73C44.2928 156.926 44.2396 157.086 44.1109 157.197C43.9511 157.339 43.6892 157.388 43.4052 157.388L43.4096 157.383ZM42.6818 157.126C43.3209 157.255 43.8046 157.228 43.9999 157.059C44.0842 156.983 44.1198 156.881 44.102 156.739C44.0931 156.672 44.0665 156.645 44.0399 156.637C43.8224 156.525 43.1522 156.846 42.6818 157.126Z" fill="#407BFF"/>
<path d="M42.4511 157.25C42.4511 157.25 42.4156 157.246 42.4023 157.237C42.3757 157.219 42.3579 157.188 42.3579 157.157C42.3579 157.113 42.3934 156.037 42.8106 155.685C42.9171 155.592 43.0414 155.556 43.179 155.574C43.392 155.601 43.4542 155.73 43.4719 155.805C43.5695 156.219 42.8683 157.037 42.4955 157.246C42.4822 157.255 42.4689 157.255 42.4556 157.255L42.4511 157.25ZM43.1257 155.743C43.0547 155.743 42.9881 155.77 42.926 155.819C42.6597 156.046 42.5709 156.672 42.5443 156.984C42.9127 156.695 43.3565 156.077 43.2988 155.832C43.2944 155.81 43.2811 155.757 43.1657 155.743C43.1657 155.743 43.139 155.743 43.1257 155.743Z" fill="#407BFF"/>
<path d="M67.9929 155.73C67.9618 155.73 67.9307 155.712 67.913 155.685C67.8952 155.654 67.8997 155.61 67.9263 155.583C68.055 155.441 69.1823 154.2 69.6927 154.276C69.7904 154.289 69.8658 154.347 69.9102 154.445C69.9856 154.605 69.9856 154.76 69.9102 154.903C69.6572 155.387 68.6098 155.627 68.0062 155.73C68.0062 155.73 67.9973 155.73 67.9929 155.73ZM69.6306 154.449C69.3332 154.458 68.6852 155.036 68.237 155.507C69.0536 155.343 69.6128 155.094 69.7549 154.823C69.8037 154.729 69.8037 154.627 69.7549 154.52C69.7371 154.48 69.7105 154.458 69.6705 154.454C69.6617 154.454 69.6483 154.454 69.635 154.454L69.6306 154.449Z" fill="#407BFF"/>
<path d="M67.9928 155.73C67.9928 155.73 67.975 155.73 67.9662 155.73C67.9351 155.721 67.9129 155.698 67.904 155.667C67.8907 155.627 67.6333 154.654 67.9351 154.12C68.0283 153.96 68.1614 153.853 68.339 153.804C68.5742 153.742 68.6807 153.831 68.734 153.92C68.947 154.289 68.4011 155.356 68.0505 155.707C68.0327 155.725 68.015 155.734 67.9928 155.734V155.73ZM68.4766 153.96C68.4544 153.96 68.4233 153.965 68.3878 153.973C68.2591 154.009 68.1614 154.085 68.0904 154.205C67.8907 154.556 67.9795 155.161 68.0372 155.454C68.3656 155.032 68.7073 154.227 68.5831 154.005C68.5742 153.991 68.5564 153.956 68.4766 153.96Z" fill="#407BFF"/>
<path d="M38.5895 47.6251C37.4755 49.9281 36.3393 52.3023 35.2386 54.6409C34.6927 55.8191 34.1424 56.9884 33.6276 58.1666L32.8553 59.9316L32.4869 60.8164L32.3937 61.0387L32.3272 61.2032C32.2828 61.3099 32.2517 61.4166 32.2118 61.5188C31.9455 62.368 31.8745 63.2617 32.0653 64.222C32.2384 65.1824 32.66 66.196 33.237 67.1786C33.814 68.1656 34.5374 69.1304 35.3496 70.0463C35.7535 70.5087 36.1751 70.9622 36.6189 71.3934C36.8408 71.6113 37.0672 71.8247 37.298 72.0292C37.5199 72.2382 37.7684 72.456 37.9637 72.6294L36.4813 74.9991C35.7934 74.6479 35.2165 74.3056 34.6217 73.9099C34.0314 73.5186 33.4545 73.1096 32.8953 72.665C31.7813 71.7713 30.7294 70.7577 29.7929 69.5706C28.8654 68.3879 28.0487 67.0097 27.5516 65.4091C27.059 63.8174 26.9347 61.9768 27.3386 60.2606C27.3919 60.0472 27.4407 59.8338 27.5073 59.6248L27.6804 59.0735L27.9955 58.0954C28.2129 57.4508 28.4304 56.8016 28.6701 56.1659C29.1361 54.8898 29.6243 53.6272 30.148 52.3823C31.1865 49.8836 32.3094 47.4695 33.5743 45.0464L38.5851 47.6206L38.5895 47.6251Z" fill="#E2A19B"/>
<path d="M34.5061 42.3654C31.1153 43.428 27.7822 54.9476 27.7822 54.9476L35.629 58.3888C35.629 58.3888 38.1677 52.8224 39.6278 48.4609C41.2167 43.7081 38.6159 41.0805 34.5106 42.3654H34.5061Z" fill="#407BFF"/>
<path opacity="0.2" d="M34.5061 42.3654C31.1153 43.428 27.7822 54.9476 27.7822 54.9476L35.629 58.3888C35.629 58.3888 38.1677 52.8224 39.6278 48.4609C41.2167 43.7081 38.6159 41.0805 34.5106 42.3654H34.5061Z" fill="black"/>
<path d="M37.1426 71.9004L40.387 73.8344L37.2314 76.9822C37.2314 76.9822 34.4886 74.8703 35.3096 73.2164L37.1426 71.9048V71.9004Z" fill="#E2A19B"/>
<path d="M42.5573 76.9156L39.2997 79.2008L37.2314 76.9822L40.387 73.8345L42.5573 76.9156Z" fill="#E2A19B"/>
<path d="M199.541 71.0706L199.386 73.2124L199.828 73.2445L199.983 71.1027L199.541 71.0706Z" fill="#407BFF"/>
<path d="M200.121 62.9602L199.672 69.1729L200.115 69.2049L200.564 62.9923L200.121 62.9602Z" fill="#407BFF"/>
<path d="M187.98 132.833H79.2701C75.9504 132.833 73.425 130.112 73.6647 126.782L79.4166 46.3982C79.6563 43.0726 82.5677 40.3472 85.8875 40.3472H194.597C197.917 40.3472 200.442 43.0681 200.203 46.3982L194.451 126.782C194.211 130.108 191.3 132.833 187.98 132.833Z" fill="#407BFF"/>
<path d="M162.695 160.967H127.407L121.118 117.285H156.406L162.695 160.967Z" fill="#407BFF"/>
<path d="M157.09 158.362H118.921L118.162 160.967H156.335L157.09 158.362Z" fill="#407BFF"/>
<path d="M158.266 138.315L123.874 136.43L121.118 117.285H155.239L158.266 138.315Z" fill="#263238"/>
<path d="M186.755 132.833H78.045C74.7253 132.833 72.1999 130.112 72.4396 126.782L78.1915 46.3982C78.4312 43.0726 81.3426 40.3472 84.6624 40.3472H193.372C196.692 40.3472 199.217 43.0681 198.978 46.3982L193.226 126.782C192.986 130.108 190.075 132.833 186.755 132.833Z" fill="#263238"/>
<path d="M198.692 47.1744L195.393 93.2856L195.818 93.3162L199.117 47.2049L198.692 47.1744Z" fill="white"/>
<path d="M195.126 97.3009L193.983 113.27L194.408 113.301L195.551 97.3314L195.126 97.3009Z" fill="white"/>
<path d="M186.524 131.326H78.4888C75.9013 131.326 73.9396 129.205 74.126 126.618L79.8558 46.5628C80.0422 43.9708 82.3101 41.8545 84.8932 41.8545H192.928C195.516 41.8545 197.477 43.9752 197.291 46.5628L191.561 126.618C191.375 129.21 189.107 131.326 186.524 131.326Z" fill="white"/>
<path opacity="0.2" d="M186.524 131.326H78.4888C75.9013 131.326 73.9396 129.205 74.126 126.618L79.8558 46.5628C80.0422 43.9708 82.3101 41.8545 84.8932 41.8545H192.928C195.516 41.8545 197.477 43.9752 197.291 46.5628L191.561 126.618C191.375 129.21 189.107 131.326 186.524 131.326Z" fill="#407BFF"/>
<path opacity="0.5" d="M106.201 127.778H80.9699C79.7227 127.778 78.7729 126.755 78.8617 125.502L84.4317 47.6743C84.5204 46.425 85.6167 45.3979 86.8638 45.3979H112.095C113.342 45.3979 114.292 46.4205 114.203 47.6743L108.633 125.502C108.545 126.751 107.448 127.778 106.201 127.778Z" fill="white"/>
<path opacity="0.4" d="M105.225 56.3754H92.1674C91.0401 56.3754 90.188 55.455 90.2679 54.3258L90.4099 52.3206C90.4898 51.1913 91.4751 50.271 92.6024 50.271H105.66C106.787 50.271 107.639 51.1913 107.559 52.3206L107.417 54.3258C107.337 55.455 106.352 56.3754 105.225 56.3754Z" fill="#407BFF"/>
<path d="M96.9208 87.8575H76.9843C75.0226 87.8575 73.5314 86.248 73.669 84.2829L75.0981 64.3114C75.2401 62.3463 76.9621 60.7368 78.9238 60.7368H98.8603C100.822 60.7368 102.313 62.3463 102.176 64.3114L100.747 84.2829C100.605 86.248 98.8825 87.8575 96.9208 87.8575Z" fill="#407BFF"/>
<path d="M99.7791 71.483C99.0291 71.483 98.3766 72.0965 98.3234 72.8434L98.1148 75.7422C98.0615 76.4936 98.6296 77.1027 99.3797 77.1027H101.404C101.59 77.1027 101.75 76.9516 101.763 76.7648L102.118 71.8164C102.131 71.6297 101.989 71.4785 101.803 71.4785H99.7791V71.483Z" fill="white"/>
<path d="M92.0877 65.8139H79.5231C79.2213 65.8139 78.9949 65.5694 79.0171 65.2671C79.0393 64.9647 79.3012 64.7202 79.603 64.7202H92.1676C92.4694 64.7202 92.6957 64.9647 92.6735 65.2671C92.6513 65.5694 92.3895 65.8139 92.0877 65.8139Z" fill="white"/>
<path d="M91.8924 68.5971H79.3278C79.026 68.5971 78.7996 68.3526 78.8218 68.0503C78.844 67.7479 79.1059 67.5034 79.4077 67.5034H91.9723C92.2741 67.5034 92.5004 67.7479 92.4782 68.0503C92.456 68.3526 92.1942 68.5971 91.8924 68.5971Z" fill="white"/>
<path d="M87.3477 71.3759H79.1237C78.8219 71.3759 78.5955 71.1314 78.6177 70.8291C78.6399 70.5268 78.9018 70.2822 79.2036 70.2822H87.4276C87.7294 70.2822 87.9557 70.5268 87.9335 70.8291C87.9113 71.1314 87.6495 71.3759 87.3477 71.3759Z" fill="white"/>
<path opacity="0.5" d="M92.1232 84.6297H79.9669C78.6843 84.6297 77.7079 83.576 77.8011 82.2911L78.2582 75.8933C78.3514 74.6084 79.4743 73.5547 80.7569 73.5547H92.9132C94.1959 73.5547 95.1723 74.6084 95.0791 75.8933L94.6219 82.2911C94.5287 83.576 93.4059 84.6297 92.1232 84.6297Z" fill="white"/>
<path opacity="0.4" d="M103.472 95.3355H88.3463C87.7915 95.3355 87.3655 94.8775 87.4054 94.3218C87.4454 93.766 87.9336 93.3081 88.4883 93.3081H103.614C104.169 93.3081 104.595 93.766 104.555 94.3218C104.515 94.8775 104.027 95.3355 103.472 95.3355Z" fill="#407BFF"/>
<path opacity="0.8" d="M100.423 99.3101H90.8229C90.2681 99.3101 89.842 98.8522 89.882 98.2964C89.9219 97.7407 90.4101 97.2827 90.9649 97.2827H100.565C101.12 97.2827 101.546 97.7407 101.506 98.2964C101.466 98.8522 100.978 99.3101 100.423 99.3101Z" fill="white"/>
<path opacity="0.4" d="M102.686 106.313H87.5607C87.0059 106.313 86.5798 105.855 86.6198 105.299C86.6597 104.743 87.1479 104.285 87.7027 104.285H102.828C103.383 104.285 103.809 104.743 103.769 105.299C103.729 105.855 103.241 106.313 102.686 106.313Z" fill="#407BFF"/>
<path opacity="0.8" d="M99.6371 110.288H90.0372C89.4825 110.288 89.0564 109.83 89.0963 109.274C89.1363 108.718 89.6245 108.26 90.1793 108.26H99.7791C100.334 108.26 100.76 108.718 100.72 109.274C100.68 109.83 100.192 110.288 99.6371 110.288Z" fill="white"/>
<path opacity="0.4" d="M101.9 117.285H86.775C86.2203 117.285 85.7942 116.827 85.8341 116.272C85.8741 115.716 86.3623 115.258 86.9171 115.258H102.043C102.597 115.258 103.023 115.716 102.983 116.272C102.943 116.827 102.455 117.285 101.9 117.285Z" fill="#407BFF"/>
<path opacity="0.8" d="M98.8515 121.265H89.2516C88.6968 121.265 88.2708 120.807 88.3107 120.251C88.3506 119.695 88.8388 119.237 89.3936 119.237H98.9935C99.5483 119.237 99.9743 119.695 99.9344 120.251C99.8945 120.807 99.4062 121.265 98.8515 121.265Z" fill="white"/>
<path opacity="0.5" d="M187.696 104.957C188.353 103.956 189.853 104.379 189.773 105.539L188.317 125.88C188.242 126.929 187.452 127.778 186.555 127.778H113.395C112.499 127.778 111.829 126.924 111.904 125.88L112.77 113.795C112.885 112.164 114.541 110.99 116.063 111.466C120.186 112.755 123.719 111.999 127.003 110.367C134.024 106.873 139.901 99.3813 147.974 99.3813C148.284 99.3813 148.586 99.3902 148.883 99.408C160.893 100.133 164.55 115.076 173.857 115.076C176.609 115.076 179.117 113.889 181.305 112.19C183.981 110.114 186.169 107.286 187.691 104.957H187.696Z" fill="#407BFF"/>
<path opacity="0.5" d="M189.214 113.337L188.317 125.879C188.242 126.929 187.452 127.778 186.555 127.778H113.395C112.499 127.778 111.829 126.924 111.904 125.879L113.688 100.955C113.813 99.2478 116.045 98.532 116.946 99.9103C119.281 103.476 122.871 108.086 127.003 110.363C128.587 111.234 130.243 111.763 131.943 111.763C137.854 111.763 142.883 104.739 148.883 99.4034C152.567 96.1312 156.61 93.4902 161.452 93.4902C171.558 93.4902 173.05 109.94 181.3 112.19C182.889 112.626 184.731 112.532 186.932 111.688C188.113 111.239 189.293 112.101 189.205 113.337H189.214Z" fill="#407BFF"/>
<g opacity="0.8">
<path d="M189.573 108.478C189.533 108.478 189.498 108.46 189.467 108.433C189.453 108.42 189.44 108.402 189.436 108.384C189.427 108.367 189.422 108.344 189.422 108.327C189.422 108.282 189.44 108.247 189.467 108.22C189.52 108.162 189.622 108.158 189.68 108.22C189.711 108.247 189.724 108.287 189.724 108.327C189.724 108.344 189.724 108.367 189.715 108.384C189.706 108.402 189.693 108.42 189.68 108.433C189.653 108.46 189.613 108.478 189.573 108.478Z" fill="white"/>
<path d="M118.442 118.895C118.357 118.895 118.291 118.828 118.291 118.743C118.291 118.663 118.357 118.597 118.442 118.597C118.526 118.597 118.593 118.663 118.593 118.743C118.593 118.828 118.526 118.899 118.442 118.899V118.895ZM116.919 118.81C116.835 118.81 116.773 118.73 116.782 118.646C116.791 118.561 116.866 118.503 116.951 118.512C117.035 118.521 117.093 118.597 117.084 118.677C117.075 118.757 117.008 118.815 116.933 118.815C116.933 118.815 116.924 118.815 116.915 118.815L116.919 118.81ZM119.791 118.677C119.782 118.592 119.84 118.517 119.924 118.508C120.008 118.499 120.084 118.557 120.093 118.641C120.102 118.726 120.044 118.801 119.96 118.81H119.942C119.866 118.81 119.8 118.752 119.791 118.677ZM115.419 118.579C115.339 118.561 115.286 118.481 115.3 118.397C115.317 118.317 115.397 118.263 115.481 118.277C115.561 118.294 115.615 118.374 115.601 118.459C115.584 118.53 115.521 118.579 115.45 118.579H115.419ZM121.273 118.428C121.251 118.343 121.3 118.263 121.384 118.241C121.464 118.223 121.544 118.272 121.566 118.352C121.588 118.432 121.535 118.517 121.455 118.539H121.42C121.349 118.539 121.287 118.494 121.273 118.428ZM169.814 118.49C169.73 118.49 169.663 118.423 169.663 118.339C169.663 118.254 169.734 118.188 169.814 118.188C169.898 118.188 169.965 118.254 169.965 118.339C169.965 118.423 169.898 118.49 169.814 118.49ZM171.168 118.277C171.159 118.192 171.221 118.116 171.301 118.112C171.385 118.099 171.461 118.161 171.47 118.245C171.478 118.33 171.416 118.405 171.332 118.414H171.319C171.243 118.414 171.177 118.357 171.168 118.277ZM168.296 118.397C168.216 118.388 168.154 118.312 168.168 118.228C168.176 118.143 168.252 118.085 168.336 118.094C168.421 118.108 168.478 118.183 168.469 118.263C168.456 118.343 168.394 118.401 168.318 118.401C168.318 118.401 168.305 118.401 168.296 118.401V118.397ZM113.946 118.214C113.866 118.192 113.817 118.108 113.839 118.028C113.866 117.948 113.946 117.899 114.03 117.921C114.11 117.948 114.154 118.028 114.132 118.112C114.115 118.179 114.052 118.219 113.986 118.219C113.986 118.219 113.959 118.219 113.946 118.219V118.214ZM172.659 118.068C172.641 117.983 172.695 117.903 172.779 117.89C172.859 117.872 172.939 117.925 172.956 118.01C172.974 118.09 172.921 118.17 172.837 118.188C172.837 118.188 172.819 118.188 172.81 118.188C172.739 118.188 172.672 118.134 172.659 118.063V118.068ZM166.805 118.121C166.721 118.103 166.672 118.023 166.694 117.939C166.712 117.859 166.792 117.81 166.876 117.828C166.956 117.845 167.005 117.93 166.987 118.01C166.969 118.081 166.907 118.125 166.841 118.125C166.841 118.125 166.814 118.125 166.805 118.125V118.121ZM122.711 117.996C122.68 117.916 122.72 117.828 122.8 117.801C122.876 117.77 122.964 117.81 122.995 117.885C123.022 117.965 122.987 118.054 122.907 118.081C122.907 118.081 122.871 118.094 122.853 118.094C122.791 118.094 122.734 118.054 122.711 117.996ZM174.128 117.734C174.106 117.65 174.15 117.565 174.235 117.543C174.315 117.521 174.399 117.57 174.421 117.65C174.443 117.73 174.394 117.814 174.315 117.836C174.315 117.836 174.288 117.845 174.275 117.845C174.208 117.845 174.146 117.801 174.128 117.734ZM165.349 117.681C165.269 117.654 165.229 117.565 165.256 117.49C165.287 117.41 165.371 117.37 165.451 117.396C165.531 117.427 165.571 117.512 165.545 117.592C165.522 117.654 165.46 117.69 165.398 117.69C165.398 117.69 165.363 117.69 165.349 117.681ZM124.092 117.396C124.052 117.325 124.083 117.232 124.158 117.192C124.234 117.156 124.322 117.192 124.362 117.263C124.398 117.334 124.371 117.427 124.296 117.463C124.296 117.463 124.251 117.481 124.225 117.481C124.172 117.481 124.118 117.45 124.092 117.396ZM175.571 117.29C175.539 117.21 175.584 117.125 175.659 117.098C175.735 117.067 175.824 117.112 175.85 117.187C175.877 117.267 175.837 117.356 175.757 117.383C175.757 117.383 175.726 117.392 175.708 117.392C175.646 117.392 175.588 117.352 175.566 117.29H175.571ZM163.947 117.103C163.871 117.072 163.836 116.978 163.871 116.903C163.907 116.827 163.996 116.796 164.071 116.827C164.151 116.863 164.182 116.952 164.147 117.032C164.12 117.085 164.067 117.121 164.009 117.121C164.009 117.121 163.965 117.116 163.947 117.103ZM176.977 116.756C176.946 116.68 176.977 116.592 177.062 116.56C177.137 116.525 177.226 116.56 177.257 116.64C177.293 116.716 177.257 116.805 177.177 116.84C177.177 116.84 177.137 116.849 177.119 116.849C177.057 116.849 177.004 116.814 176.977 116.756ZM125.405 116.667C125.361 116.596 125.383 116.498 125.454 116.454C125.525 116.409 125.618 116.431 125.663 116.503C125.707 116.574 125.685 116.667 125.614 116.712C125.614 116.712 125.561 116.738 125.534 116.738C125.485 116.738 125.436 116.712 125.405 116.667ZM162.593 116.423C162.518 116.383 162.491 116.289 162.531 116.214C162.571 116.142 162.664 116.116 162.74 116.156C162.811 116.196 162.837 116.285 162.797 116.36C162.771 116.409 162.717 116.44 162.664 116.44C162.642 116.44 162.615 116.431 162.593 116.423ZM178.358 116.147C178.322 116.071 178.358 115.982 178.429 115.947C178.504 115.911 178.597 115.947 178.633 116.018C178.668 116.094 178.633 116.182 178.557 116.218C178.557 116.218 178.513 116.236 178.491 116.236C178.433 116.236 178.38 116.205 178.353 116.147H178.358ZM126.657 115.831C126.608 115.76 126.626 115.667 126.692 115.618C126.759 115.569 126.857 115.582 126.905 115.649C126.954 115.716 126.937 115.813 126.87 115.862C126.843 115.88 126.812 115.893 126.781 115.893C126.732 115.893 126.688 115.871 126.657 115.831ZM161.284 115.662C161.213 115.618 161.191 115.524 161.235 115.453C161.275 115.378 161.368 115.356 161.439 115.4C161.515 115.444 161.537 115.538 161.493 115.609C161.461 115.658 161.413 115.685 161.364 115.685C161.337 115.685 161.306 115.676 161.284 115.662ZM179.707 115.471C179.667 115.4 179.694 115.307 179.769 115.267C179.84 115.227 179.933 115.258 179.973 115.329C180.013 115.404 179.987 115.493 179.911 115.538C179.911 115.538 179.862 115.556 179.84 115.556C179.787 115.556 179.734 115.524 179.707 115.471ZM127.864 114.92C127.811 114.853 127.82 114.76 127.886 114.706C127.953 114.653 128.046 114.666 128.099 114.729C128.153 114.795 128.139 114.893 128.077 114.946C128.046 114.969 128.015 114.978 127.98 114.978C127.935 114.978 127.891 114.96 127.864 114.92ZM160.006 114.853C159.935 114.804 159.917 114.711 159.961 114.64C160.01 114.569 160.103 114.551 160.174 114.595C160.241 114.64 160.263 114.738 160.219 114.804C160.188 114.853 160.139 114.875 160.09 114.875C160.059 114.875 160.032 114.866 160.006 114.853ZM181.025 114.742C180.981 114.666 181.007 114.577 181.078 114.533C181.149 114.493 181.243 114.515 181.287 114.586C181.327 114.658 181.305 114.751 181.234 114.795C181.207 114.809 181.18 114.818 181.154 114.818C181.105 114.818 181.052 114.791 181.025 114.742ZM158.75 114.013C158.683 113.964 158.661 113.871 158.71 113.799C158.759 113.733 158.852 113.715 158.923 113.759C158.989 113.808 159.007 113.902 158.963 113.973C158.932 114.017 158.883 114.04 158.834 114.04C158.807 114.04 158.776 114.031 158.75 114.013ZM182.312 113.959C182.268 113.888 182.29 113.795 182.361 113.746C182.432 113.702 182.525 113.724 182.57 113.795C182.614 113.866 182.592 113.959 182.521 114.004C182.521 114.004 182.472 114.031 182.441 114.031C182.392 114.031 182.343 114.004 182.312 113.959ZM129.031 113.968C128.978 113.906 128.987 113.808 129.049 113.755C129.116 113.702 129.213 113.711 129.267 113.773C129.32 113.839 129.311 113.933 129.244 113.986C129.218 114.013 129.182 114.022 129.147 114.022C129.107 114.022 129.062 114.004 129.031 113.968ZM183.577 113.133C183.528 113.061 183.546 112.968 183.613 112.919C183.684 112.87 183.777 112.888 183.826 112.959C183.87 113.026 183.857 113.124 183.786 113.168C183.759 113.186 183.728 113.195 183.701 113.195C183.653 113.195 183.604 113.173 183.577 113.133ZM157.503 113.168C157.432 113.119 157.414 113.026 157.463 112.959C157.507 112.888 157.6 112.87 157.671 112.915C157.742 112.964 157.76 113.057 157.711 113.128C157.685 113.173 157.636 113.195 157.587 113.195C157.56 113.195 157.529 113.186 157.503 113.168ZM130.19 112.999C130.132 112.937 130.141 112.839 130.207 112.786C130.27 112.732 130.367 112.741 130.421 112.804C130.474 112.87 130.465 112.964 130.403 113.017C130.372 113.044 130.341 113.052 130.305 113.052C130.261 113.052 130.216 113.035 130.19 112.999ZM156.251 112.332C156.18 112.283 156.158 112.19 156.207 112.123C156.251 112.052 156.349 112.03 156.415 112.079C156.486 112.123 156.504 112.217 156.46 112.288C156.433 112.332 156.384 112.354 156.335 112.354C156.304 112.354 156.278 112.354 156.251 112.332ZM184.811 112.261C184.758 112.194 184.775 112.101 184.842 112.052C184.909 112.003 185.006 112.017 185.055 112.083C185.104 112.15 185.086 112.248 185.019 112.297C184.993 112.314 184.962 112.323 184.931 112.323C184.886 112.323 184.838 112.306 184.811 112.261ZM131.348 112.034C131.295 111.972 131.304 111.874 131.37 111.821C131.437 111.768 131.53 111.781 131.583 111.843C131.637 111.91 131.628 112.008 131.561 112.057C131.535 112.083 131.499 112.092 131.464 112.092C131.424 112.092 131.379 112.074 131.348 112.034ZM154.986 111.519C154.915 111.474 154.893 111.381 154.937 111.31C154.982 111.239 155.075 111.216 155.146 111.261C155.217 111.305 155.239 111.399 155.195 111.47C155.164 111.519 155.115 111.545 155.066 111.545C155.039 111.545 155.008 111.536 154.986 111.519ZM186.018 111.359C185.965 111.292 185.978 111.194 186.045 111.145C186.111 111.092 186.204 111.105 186.258 111.172C186.307 111.239 186.293 111.332 186.231 111.385C186.204 111.407 186.173 111.416 186.142 111.416C186.094 111.416 186.049 111.394 186.023 111.359H186.018ZM132.529 111.101C132.48 111.034 132.493 110.936 132.56 110.887C132.626 110.838 132.72 110.852 132.773 110.918C132.822 110.985 132.808 111.078 132.742 111.132C132.715 111.15 132.684 111.163 132.653 111.163C132.604 111.163 132.56 111.141 132.529 111.101ZM153.695 110.749C153.624 110.709 153.597 110.616 153.641 110.54C153.681 110.469 153.774 110.443 153.845 110.487C153.921 110.527 153.948 110.621 153.903 110.692C153.877 110.741 153.823 110.772 153.77 110.772C153.748 110.772 153.721 110.763 153.695 110.749ZM187.194 110.416C187.141 110.354 187.15 110.256 187.216 110.203C187.283 110.149 187.376 110.158 187.429 110.225C187.483 110.287 187.474 110.385 187.412 110.438C187.381 110.46 187.345 110.474 187.314 110.474C187.27 110.474 187.225 110.456 187.194 110.416ZM133.754 110.22C133.705 110.149 133.723 110.056 133.794 110.007C133.865 109.963 133.958 109.98 134.007 110.051C134.051 110.118 134.033 110.216 133.962 110.26C133.936 110.278 133.909 110.287 133.878 110.287C133.829 110.287 133.78 110.26 133.754 110.22ZM152.376 110.034C152.305 109.998 152.274 109.905 152.314 109.829C152.35 109.754 152.443 109.727 152.518 109.762C152.589 109.802 152.621 109.896 152.585 109.971C152.558 110.02 152.501 110.051 152.447 110.051C152.447 110.051 152.399 110.051 152.376 110.034ZM188.348 109.442C188.295 109.38 188.299 109.282 188.361 109.229C188.424 109.176 188.517 109.18 188.575 109.242C188.628 109.305 188.619 109.402 188.557 109.456C188.53 109.482 188.495 109.496 188.459 109.496C188.415 109.496 188.375 109.478 188.344 109.442H188.348ZM135.027 109.416C134.983 109.345 135.01 109.251 135.085 109.207C135.156 109.167 135.249 109.193 135.289 109.264C135.329 109.34 135.307 109.429 135.232 109.473C135.205 109.487 135.178 109.491 135.156 109.491C135.103 109.491 135.05 109.465 135.023 109.416H135.027ZM151.027 109.389C150.952 109.353 150.916 109.264 150.952 109.189C150.983 109.113 151.076 109.078 151.151 109.113C151.227 109.144 151.262 109.233 151.227 109.313C151.205 109.367 151.147 109.402 151.089 109.402C151.067 109.402 151.049 109.402 151.027 109.389ZM149.642 108.824C149.563 108.798 149.523 108.709 149.554 108.629C149.58 108.553 149.669 108.513 149.749 108.54C149.824 108.571 149.864 108.655 149.838 108.735C149.816 108.798 149.758 108.833 149.696 108.833C149.696 108.833 149.66 108.833 149.642 108.824ZM136.359 108.718C136.328 108.642 136.359 108.549 136.434 108.518C136.51 108.482 136.603 108.518 136.638 108.593C136.67 108.669 136.638 108.758 136.559 108.793C136.559 108.793 136.519 108.807 136.496 108.807C136.439 108.807 136.386 108.775 136.359 108.718ZM148.222 108.358C148.142 108.331 148.098 108.251 148.12 108.166C148.142 108.086 148.231 108.042 148.311 108.064C148.391 108.086 148.435 108.171 148.413 108.255C148.391 108.317 148.333 108.362 148.267 108.362C148.267 108.362 148.24 108.362 148.222 108.362V108.358ZM137.752 108.149C137.726 108.069 137.77 107.984 137.85 107.957C137.93 107.931 138.014 107.975 138.041 108.055C138.068 108.135 138.023 108.22 137.943 108.246C137.943 108.246 137.912 108.255 137.894 108.255C137.832 108.255 137.775 108.215 137.752 108.149ZM146.775 107.988C146.695 107.971 146.642 107.891 146.66 107.811C146.678 107.726 146.758 107.673 146.842 107.695C146.922 107.708 146.975 107.788 146.957 107.873C146.944 107.944 146.877 107.993 146.806 107.993C146.806 107.993 146.789 107.993 146.775 107.993V107.988ZM139.195 107.735C139.177 107.651 139.23 107.571 139.315 107.553C139.395 107.535 139.475 107.588 139.492 107.668C139.51 107.753 139.461 107.833 139.377 107.851C139.377 107.851 139.355 107.851 139.346 107.851C139.275 107.851 139.213 107.802 139.195 107.731V107.735ZM145.306 107.731C145.226 107.717 145.164 107.642 145.178 107.557C145.186 107.473 145.266 107.415 145.346 107.428C145.426 107.437 145.484 107.517 145.475 107.602C145.462 107.673 145.4 107.731 145.324 107.731H145.302H145.306ZM140.677 107.477C140.668 107.393 140.731 107.322 140.81 107.313C140.895 107.299 140.97 107.362 140.979 107.446C140.988 107.531 140.926 107.602 140.841 107.615H140.828C140.753 107.615 140.686 107.557 140.677 107.477ZM143.82 107.575H143.824C143.74 107.575 143.673 107.499 143.682 107.415C143.682 107.33 143.757 107.268 143.842 107.273C143.926 107.273 143.988 107.353 143.984 107.437C143.984 107.517 143.913 107.579 143.833 107.579C143.833 107.579 143.824 107.575 143.82 107.575ZM142.177 107.379C142.173 107.295 142.244 107.228 142.328 107.228C142.408 107.224 142.479 107.295 142.479 107.379C142.479 107.464 142.413 107.531 142.328 107.531C142.244 107.531 142.177 107.464 142.177 107.379Z" fill="white"/>
<path d="M112.499 117.738C112.499 117.738 112.459 117.738 112.441 117.725C112.424 117.716 112.406 117.707 112.393 117.69C112.379 117.676 112.366 117.663 112.361 117.641C112.353 117.623 112.348 117.605 112.348 117.583C112.348 117.543 112.366 117.507 112.393 117.476C112.406 117.463 112.424 117.449 112.441 117.445C112.477 117.427 112.521 117.427 112.557 117.445C112.579 117.445 112.592 117.463 112.606 117.476C112.637 117.507 112.65 117.543 112.65 117.583C112.65 117.605 112.65 117.623 112.641 117.641C112.632 117.663 112.623 117.676 112.606 117.69C112.592 117.707 112.574 117.716 112.557 117.725C112.539 117.734 112.521 117.738 112.499 117.738Z" fill="white"/>
</g>
<path d="M136.833 72.2073L135.795 71.0869C133.957 72.8075 131.507 73.8701 128.889 73.8701C124.5 73.8701 121.02 70.8824 120.23 66.8276L118.677 67.2367L117.256 67.6101C117.674 69.7353 118.65 71.6738 120.092 73.2299C124.597 78.0894 132.582 78.0894 137.783 73.2299L136.838 72.2073H136.833Z" fill="white"/>
<path d="M139.048 55.5083L137.69 56.7754L136.754 57.6513C138.347 59.3674 139.243 61.7461 139.053 64.3692C138.866 66.9923 137.632 69.371 135.795 71.0916L136.607 71.9674L137.779 73.2301C140.291 70.8781 141.84 67.6948 142.075 64.3692C142.315 61.048 141.223 57.8602 139.044 55.5083H139.048Z" fill="#263238"/>
<path d="M139.048 55.5084C134.543 50.6489 126.559 50.6489 121.357 55.5084C117.98 58.6695 116.409 63.2933 117.252 67.6104L119.01 67.148L120.226 66.8279C120.075 66.0454 120.022 65.2185 120.084 64.3693C120.461 59.123 125.01 54.8682 130.247 54.8682C132.866 54.8682 135.16 55.9308 136.754 57.6514L137.952 56.531L139.044 55.5084H139.048Z" fill="#407BFF"/>
<path d="M151.799 72.2075L152.997 71.0871C151.404 69.3665 150.512 66.9924 150.703 64.3648C151.018 59.9677 154.262 56.2686 158.39 55.1838L158.093 53.6543L157.817 52.2583C155.656 52.8274 153.641 53.9478 151.977 55.4994C146.775 60.3589 146.203 68.3573 150.707 73.2212L151.799 72.1986V72.2075Z" fill="white"/>
<path d="M168.394 73.2299L167.218 71.9628L166.406 71.0869C164.568 72.8075 162.123 73.8746 159.5 73.8746C156.877 73.8746 154.582 72.812 152.989 71.0914L152.052 71.9672L150.699 73.2299C152.878 75.5818 155.962 76.9023 159.282 76.9023C162.602 76.9023 165.877 75.5818 168.389 73.2299H168.394Z" fill="#263238"/>
<path d="M168.394 73.23C173.591 68.3706 174.163 60.3722 169.663 55.5083C166.734 52.3471 162.207 51.1112 157.813 52.2671L158.15 53.9922L158.386 55.1881C159.184 54.9792 160.019 54.868 160.862 54.868C166.099 54.868 170.04 59.1229 169.667 64.3692C169.481 66.9923 168.247 69.3665 166.41 71.0871L167.448 72.2075L168.394 73.23Z" fill="#407BFF"/>
<path opacity="0.3" d="M189.356 52.9562C189.608 52.9562 189.839 53.054 190.008 53.2318C190.177 53.4097 190.256 53.6498 190.239 53.9076L189.688 61.577C189.648 62.1239 189.156 62.5862 188.61 62.5862H180.954C180.701 62.5862 180.47 62.4884 180.302 62.3106C180.133 62.1327 180.053 61.8927 180.071 61.6348L180.621 53.9654C180.661 53.4186 181.154 52.9562 181.7 52.9562H189.356ZM189.356 52.5649H181.7C180.945 52.5649 180.284 53.1829 180.231 53.9388L179.68 61.6081C179.627 62.3639 180.199 62.9819 180.954 62.9819H188.61C189.364 62.9819 190.026 62.3639 190.079 61.6081L190.629 53.9388C190.683 53.1829 190.11 52.5649 189.356 52.5649Z" fill="#407BFF"/>
<path opacity="0.3" d="M188.41 66.152C188.663 66.152 188.894 66.2498 189.063 66.4276C189.231 66.6055 189.311 66.8456 189.293 67.1034L188.743 74.7728C188.703 75.3197 188.21 75.782 187.665 75.782H180.009C179.756 75.782 179.525 75.6842 179.356 75.5064C179.188 75.3286 179.108 75.0885 179.125 74.8306L179.676 67.1612C179.716 66.6144 180.208 66.152 180.754 66.152H188.41ZM188.41 65.7607H180.754C180 65.7607 179.338 66.3787 179.285 67.1346L178.735 74.8039C178.682 75.5597 179.254 76.1777 180.009 76.1777H187.665C188.419 76.1777 189.08 75.5597 189.134 74.8039L189.684 67.1346C189.737 66.3787 189.165 65.7607 188.41 65.7607Z" fill="#407BFF"/>
<path d="M177.204 108.589C177.417 108.589 177.612 108.674 177.754 108.82C177.892 108.971 177.963 109.171 177.945 109.389C177.909 109.861 177.501 110.247 177.031 110.247C176.817 110.247 176.622 110.163 176.48 110.016C176.343 109.865 176.272 109.665 176.289 109.447C176.325 108.976 176.733 108.589 177.204 108.589ZM177.204 108.193C176.529 108.193 175.948 108.74 175.899 109.416C175.85 110.092 176.356 110.639 177.031 110.639C177.705 110.639 178.287 110.092 178.335 109.416C178.384 108.74 177.878 108.193 177.204 108.193Z" fill="#407BFF"/>
<path d="M177.301 108.202L177.106 108.189L177.137 107.798L177.332 107.811L177.301 108.202Z" fill="#407BFF"/>
<path d="M177.386 107.006L177.19 106.993L177.248 106.188L177.443 106.202L177.386 107.006ZM177.501 105.401L177.306 105.388L177.364 104.583L177.559 104.597L177.501 105.401ZM177.616 103.796L177.421 103.783L177.479 102.978L177.674 102.992L177.616 103.796ZM177.732 102.191L177.537 102.178L177.594 101.373L177.79 101.387L177.732 102.191ZM177.847 100.586L177.652 100.573L177.71 99.7683L177.905 99.7817L177.847 100.586ZM177.963 98.9769L177.767 98.9636L177.825 98.1589L178.02 98.1722L177.963 98.9769ZM178.078 97.3719L177.883 97.3586L177.94 96.5539L178.136 96.5672L178.078 97.3719ZM178.193 95.7669L177.998 95.7536L178.056 94.9489L178.251 94.9622L178.193 95.7669ZM178.309 94.1619L178.114 94.1486L178.171 93.3439L178.367 93.3572L178.309 94.1619ZM178.42 92.5569L178.225 92.5436L178.282 91.7388L178.478 91.7522L178.42 92.5569ZM178.535 90.9475L178.34 90.9341L178.398 90.1294L178.593 90.1427L178.535 90.9475Z" fill="#407BFF"/>
<path d="M178.482 88.9393L178.454 89.3296L178.649 89.3434L178.677 88.9532L178.482 88.9393Z" fill="#407BFF"/>
<path d="M186.853 89.1598H116.573C116.178 89.1598 115.814 89.0042 115.548 88.7197C115.282 88.4351 115.153 88.0572 115.184 87.6615L115.53 82.8154C115.588 82.0062 116.294 81.3438 117.102 81.3438H187.381C187.776 81.3438 188.14 81.4994 188.406 81.7839C188.672 82.0685 188.801 82.4464 188.774 82.8421L188.428 87.6882C188.37 88.4974 187.665 89.1598 186.857 89.1598H186.853ZM117.106 81.7661C116.516 81.7661 116.001 82.2463 115.956 82.8421L115.61 87.6882C115.593 87.9683 115.681 88.2306 115.863 88.4262C116.045 88.6219 116.298 88.733 116.578 88.733H186.857C187.447 88.733 187.962 88.2528 188.007 87.6571L188.353 82.8109C188.37 82.5308 188.282 82.2685 188.1 82.0729C187.918 81.8773 187.665 81.7706 187.385 81.7706H117.106V81.7661Z" fill="#407BFF"/>
<path opacity="0.8" fill-rule="evenodd" clip-rule="evenodd" d="M185.343 84.4649H118.726C118.362 84.4649 118.086 84.1671 118.113 83.8069C118.14 83.4424 118.455 83.1489 118.819 83.1489H185.436C185.8 83.1489 186.076 83.4468 186.049 83.8069C186.022 84.1715 185.707 84.4649 185.343 84.4649Z" fill="white"/>
<path opacity="0.8" fill-rule="evenodd" clip-rule="evenodd" d="M174.243 87.2481H118.526C118.162 87.2481 117.887 86.9503 117.913 86.5901C117.94 86.2256 118.255 85.9321 118.619 85.9321H174.336C174.7 85.9321 174.976 86.23 174.949 86.5901C174.922 86.9547 174.607 87.2481 174.243 87.2481Z" fill="white"/>
</g>
<defs>
<clipPath id="clip0_421_3437">
<rect width="221.911" height="165.663" fill="white" transform="translate(0.544922 0.337402)"/>
</clipPath>
</defs>
</svg>
