<svg width="459" height="207" viewBox="0 0 459 207" fill="none" xmlns="http://www.w3.org/2000/svg">
<path opacity="0.9" d="M424.087 206.485L439.293 185.558V190.609L424.809 170.404H432.386L443.159 185.352L440.066 185.403L450.736 170.404H458.003L443.623 190.248V185.403L458.931 206.485H451.199L439.86 190.609H442.901L431.716 206.485H424.087Z" fill="white"/>
<path opacity="0.9" d="M407.633 194.836V189.475H421.808V194.836H407.633Z" fill="white"/>
<path opacity="0.9" d="M386.684 207C383.866 207 381.271 206.553 378.9 205.66C376.564 204.732 374.519 203.443 372.767 201.794C371.014 200.11 369.657 198.134 368.695 195.866C367.733 193.599 367.251 191.124 367.251 188.444C367.251 185.764 367.733 183.29 368.695 181.022C369.657 178.754 371.014 176.795 372.767 175.146C374.554 173.462 376.632 172.173 379.003 171.28C381.374 170.352 383.969 169.888 386.787 169.888C389.845 169.888 392.594 170.387 395.034 171.383C397.508 172.38 399.587 173.84 401.27 175.764L397.044 179.888C395.635 178.479 394.106 177.448 392.456 176.795C390.841 176.108 389.055 175.764 387.096 175.764C385.206 175.764 383.453 176.074 381.838 176.692C380.223 177.311 378.832 178.187 377.663 179.321C376.495 180.455 375.584 181.795 374.931 183.341C374.313 184.888 374.004 186.589 374.004 188.444C374.004 190.265 374.313 191.949 374.931 193.495C375.584 195.042 376.495 196.399 377.663 197.567C378.832 198.701 380.206 199.578 381.787 200.196C383.368 200.815 385.12 201.124 387.044 201.124C388.831 201.124 390.549 200.849 392.199 200.299C393.882 199.715 395.48 198.753 396.992 197.413L400.807 202.413C398.917 203.925 396.717 205.076 394.209 205.866C391.735 206.622 389.226 207 386.684 207ZM394.467 201.536V188.032H400.807V202.413L394.467 201.536Z" fill="white"/>
<path opacity="0.9" d="M353.369 206.485V170.404H360.07V206.485H353.369Z" fill="white"/>
<path opacity="0.9" d="M326.684 187.001H344.672V192.671H326.684V187.001ZM327.251 206.485H320.55V170.404H346.889V176.022H327.251V206.485Z" fill="white"/>
<path opacity="0.9" d="M278.822 206.485V170.404H284.337L306.965 198.186H304.233V170.404H310.883V206.485H305.367L282.74 178.702H285.471V206.485H278.822Z" fill="white"/>
<path opacity="0.9" d="M252.339 207C249.521 207 246.926 206.536 244.555 205.608C242.184 204.681 240.123 203.392 238.37 201.743C236.618 200.059 235.26 198.1 234.298 195.866C233.336 193.599 232.855 191.124 232.855 188.444C232.855 185.764 233.336 183.307 234.298 181.073C235.26 178.805 236.618 176.847 238.37 175.197C240.123 173.514 242.184 172.208 244.555 171.28C246.926 170.352 249.504 169.888 252.287 169.888C255.105 169.888 257.682 170.352 260.019 171.28C262.39 172.208 264.451 173.514 266.204 175.197C267.956 176.847 269.314 178.805 270.276 181.073C271.238 183.307 271.719 185.764 271.719 188.444C271.719 191.124 271.238 193.599 270.276 195.866C269.314 198.134 267.956 200.093 266.204 201.743C264.451 203.392 262.39 204.681 260.019 205.608C257.682 206.536 255.122 207 252.339 207ZM252.287 201.124C254.108 201.124 255.792 200.815 257.338 200.196C258.885 199.578 260.225 198.701 261.359 197.567C262.493 196.399 263.369 195.059 263.987 193.547C264.64 192.001 264.967 190.3 264.967 188.444C264.967 186.589 264.64 184.905 263.987 183.393C263.369 181.847 262.493 180.506 261.359 179.372C260.225 178.204 258.885 177.311 257.338 176.692C255.792 176.074 254.108 175.764 252.287 175.764C250.466 175.764 248.782 176.074 247.236 176.692C245.724 177.311 244.384 178.204 243.215 179.372C242.081 180.506 241.188 181.847 240.535 183.393C239.916 184.905 239.607 186.589 239.607 188.444C239.607 190.265 239.916 191.949 240.535 193.495C241.188 195.042 242.081 196.399 243.215 197.567C244.349 198.701 245.689 199.578 247.236 200.196C248.782 200.815 250.466 201.124 252.287 201.124Z" fill="white"/>
<path opacity="0.9" d="M215.436 207C212.687 207 210.127 206.553 207.756 205.66C205.419 204.732 203.375 203.443 201.622 201.794C199.904 200.11 198.564 198.134 197.602 195.866C196.64 193.599 196.159 191.124 196.159 188.444C196.159 185.764 196.64 183.29 197.602 181.022C198.564 178.754 199.921 176.795 201.674 175.146C203.426 173.462 205.471 172.173 207.808 171.28C210.144 170.352 212.704 169.888 215.488 169.888C218.443 169.888 221.14 170.404 223.58 171.435C226.02 172.431 228.082 173.926 229.765 175.919L225.436 179.991C224.13 178.582 222.669 177.534 221.054 176.847C219.439 176.125 217.687 175.764 215.797 175.764C213.907 175.764 212.172 176.074 210.591 176.692C209.045 177.311 207.687 178.187 206.519 179.321C205.385 180.455 204.492 181.795 203.839 183.341C203.22 184.888 202.911 186.589 202.911 188.444C202.911 190.3 203.22 192.001 203.839 193.547C204.492 195.093 205.385 196.433 206.519 197.567C207.687 198.701 209.045 199.578 210.591 200.196C212.172 200.815 213.907 201.124 215.797 201.124C217.687 201.124 219.439 200.78 221.054 200.093C222.669 199.371 224.13 198.289 225.436 196.846L229.765 200.969C228.082 202.928 226.02 204.423 223.58 205.454C221.14 206.485 218.426 207 215.436 207Z" fill="white"/>
<path d="M184.756 146.762C180.922 156.575 175.423 165.812 168.418 173.834C164.925 177.849 161.105 181.605 156.955 184.978C152.809 188.359 148.37 191.4 143.693 194.055C134.334 199.35 124.007 203.044 113.318 204.918C107.97 205.837 102.533 206.326 97.0898 206.33H95.048L94.0252 206.322L93.0061 206.271C91.6461 206.195 90.2825 206.147 88.9188 206.045L84.8425 205.629C83.4861 205.465 82.1371 205.232 80.7845 205.035C75.3885 204.131 70.0585 202.774 64.8678 200.973L62.9322 200.269C62.2907 200.025 61.6309 199.82 61.0041 199.539L57.199 197.946L53.4746 196.17C52.8441 195.886 52.2539 195.535 51.6454 195.215L49.8272 194.234C40.2045 188.869 31.436 181.879 24.1008 173.554C16.7803 165.221 10.8601 155.608 6.72513 145.223C2.64147 134.819 0.361364 123.671 0.0314455 112.432C-0.107853 106.817 0.214734 101.172 1.01754 95.5776L1.34745 93.4844C1.46109 92.7879 1.55273 92.0841 1.71036 91.3949L2.58281 87.2377L3.66055 83.1243C3.82551 82.4351 4.07112 81.7678 4.27273 81.0895L4.91424 79.062C8.50302 68.2935 13.9393 58.0829 21.0326 49.0939C28.1222 40.1086 36.7697 32.2975 46.5316 26.1055C56.3155 19.9537 67.2029 15.4647 78.5777 12.8792C84.2706 11.6102 90.0772 10.8444 95.9094 10.5381C101.742 10.2099 107.611 10.4177 113.446 11.0887C125.122 12.4124 136.596 15.8548 147.215 21.0586C157.809 26.3207 167.568 33.3551 175.838 41.9101C184.152 50.4213 190.963 60.4386 195.944 71.3457L172.33 81.3375C168.994 72.9539 164.221 65.0516 158.154 58.1886C152.131 51.2856 144.833 45.4436 136.764 40.9109C132.714 38.6682 128.469 36.761 124.081 35.2148L123.26 34.9195L122.428 34.6569L120.763 34.1281C119.649 33.789 118.52 33.4973 117.398 33.18C116.262 32.9211 115.133 32.6184 113.985 32.3887L112.266 32.0459L111.405 31.8745L110.539 31.7359C105.924 30.9738 101.217 30.5617 96.5033 30.5982C91.7891 30.6128 87.0749 30.992 82.4157 31.787C73.1121 33.428 64.0503 36.6261 55.7364 41.2865C47.4481 45.987 39.9223 52.1097 33.6062 59.341C30.4353 62.9475 27.6163 66.864 25.1272 70.9847C22.6419 75.1054 20.5047 79.4485 18.7525 83.9485L18.122 85.6478C17.9204 86.2167 17.6784 86.7746 17.5098 87.3544L16.4137 90.8151L15.4936 94.3268C15.325 94.9102 15.2187 95.5083 15.0941 96.0991L14.7238 97.8786C13.7964 102.641 13.2722 107.491 13.1439 112.374C12.9459 122.136 14.4342 131.945 17.5611 141.277C20.7467 150.587 25.5598 159.394 31.7513 167.194C37.9574 174.983 45.5639 181.707 54.0977 187.035L55.7144 188.009C56.2569 188.326 56.7811 188.68 57.342 188.964L60.6704 190.758L64.0833 192.392C64.6478 192.68 65.2417 192.895 65.8208 193.147L67.5694 193.88C72.2579 195.769 77.1187 197.268 82.0822 198.354C83.3285 198.599 84.5712 198.879 85.8249 199.095L89.6007 199.667C90.8653 199.82 92.1337 199.93 93.402 200.065L94.3551 200.163L95.3119 200.214L97.2254 200.309C102.328 200.561 107.464 200.353 112.552 199.733C122.728 198.46 132.728 195.448 141.962 190.809C146.574 188.483 151.002 185.763 155.177 182.692C159.36 179.625 163.253 176.157 166.86 172.409C174.089 164.915 179.965 156.101 184.258 146.547L184.775 146.758L184.756 146.762Z" fill="#007BFF"/>
<path d="M175.617 37.6687L159.98 25.3327L170.548 19.0663L179.823 26.387L175.617 37.6687Z" fill="#007BFF"/>
<path d="M198.229 69.9126L184.784 46.6376L198.839 42.6292L205.866 53.5149L198.229 69.9126Z" fill="#007BFF"/>
<path d="M112.855 7.90491H96.7329L100.011 0.463989H109.577L112.855 7.90491Z" fill="#007BFF"/>
<path d="M194.946 69.9126C199.061 79.7096 197.345 89.9367 191.114 92.7527C184.883 95.5687 176.497 89.9073 172.382 80.1103" fill="#007BFF"/>
<path d="M203.156 118.961L197.271 126.544C196.822 127.119 195.946 127.093 195.534 126.492L177.54 100.133C176.845 99.1114 178.129 97.9127 179.097 98.6799L201.779 116.674C201.809 116.696 201.834 116.719 201.868 116.737L202.891 117.394C203.424 117.737 203.546 118.463 203.159 118.961H203.156Z" fill="#007BFF"/>
<path d="M204.96 132.778L211.109 126.085C211.614 125.533 212.457 125.618 212.864 126.259L231.696 155.998C232.456 157.199 231.026 158.599 230.01 157.651L209.553 138.603L205.051 134.627C204.525 134.16 204.481 133.3 204.96 132.778Z" fill="#007BFF"/>
<path d="M145.098 17.8261L128.976 11.4966L135.181 4.18443L144.743 7.93881L145.098 17.8261Z" fill="#007BFF"/>
<path d="M83.0903 9.84353L68.2085 14.1057L69.3557 6.71107L78.1833 4.18443L83.0903 9.84353Z" fill="#007BFF"/>
<path d="M55.8073 18.3488L44.0215 25.2671L43.4058 18.207L50.4006 14.1057L55.8073 18.3488Z" fill="#007BFF"/>
<path d="M34.7245 32.4336L26.1422 40.1489L24.8032 34.8039L29.8933 30.2277L34.7245 32.4336Z" fill="#007BFF"/>
<path d="M18.6034 49.4449L12.577 58.7512L9.92236 54.3491L13.4969 48.83L18.6034 49.4449Z" fill="#007BFF"/>
<path d="M180.868 152.183C178.57 150.192 180.49 150.151 182.473 147.843L215.941 102.85C218.492 99.8785 222.234 98.8182 224.525 100.423L225.412 101.046C227.633 102.603 227.417 106.388 224.942 109.274L185.372 149.871C183.39 152.18 183.173 154.179 180.871 152.187L180.868 152.183Z" fill="#007BFF"/>
<path d="M167.422 115.178C167.422 123.282 165.899 131.408 162.896 138.986C159.916 146.575 155.456 153.591 149.837 159.604C144.208 165.603 137.407 170.594 129.816 174.141C126.021 175.91 122.043 177.348 117.941 178.362C113.839 179.384 109.616 180.004 105.364 180.212C96.8641 180.617 88.1521 179.369 79.9734 176.396C71.7984 173.426 64.1749 168.759 57.7605 162.728C51.3352 156.707 46.1299 149.319 42.583 141.157C39.0361 132.998 37.2097 124.063 37.2061 115.178C37.2061 106.294 39.0361 97.3583 42.583 89.1999C46.1299 81.0415 51.3352 73.6493 57.7605 67.629C64.1749 61.5978 71.7984 56.9311 79.9734 53.9611C88.1521 50.9838 96.8641 49.7396 105.364 50.1446C109.616 50.3563 113.835 50.9729 117.941 51.9945C122.047 53.0088 126.025 54.45 129.816 56.216C137.407 59.7625 144.208 64.7539 149.837 70.7523C155.456 76.7652 159.919 83.7816 162.896 91.3708C165.899 98.9455 167.426 107.075 167.422 115.178ZM157.695 115.178C157.687 108.323 156.27 101.492 153.527 95.253C150.78 89.0175 146.747 83.373 141.779 78.8048C136.819 74.2258 130.941 70.734 124.695 68.5594C118.441 66.3848 111.837 65.5456 105.368 65.947C98.8914 66.3593 92.6305 68.0486 86.9759 70.8143C81.314 73.5654 76.2585 77.3819 72.0833 81.9281C67.9191 86.4853 64.6315 91.7612 62.4508 97.424C60.2518 103.079 59.134 109.1 59.1304 115.175C59.1304 121.25 60.2481 127.27 62.4508 132.925C64.6315 138.588 67.9191 143.86 72.0833 148.421C76.2585 152.968 81.314 156.784 86.9759 159.535C92.6305 162.301 98.8914 163.994 105.368 164.402C111.837 164.804 118.441 163.965 124.695 161.79C130.941 159.615 136.819 156.124 141.779 151.545C146.751 146.976 150.78 141.332 153.527 135.096C156.27 128.857 157.687 122.027 157.695 115.171V115.178Z" fill="#007BFF"/>
</svg>
