<svg width="28" height="28" viewBox="0 0 28 28" fill="none" xmlns="http://www.w3.org/2000/svg">
<g id="Mask group">
<mask id="mask0_125_839" style="mask-type:alpha" maskUnits="userSpaceOnUse" x="0" y="0" width="28" height="28">
<circle id="Ellipse 185" cx="14" cy="14" r="14" fill="#D9D9D9"/>
</mask>
<g mask="url(#mask0_125_839)">
<g id="Group 27298">
<path id="Vector" d="M34.2757 27.7584H-6.27583C-6.67573 27.7584 -7 27.4341 -7 27.0342V0.96538C-7 0.565479 -6.67573 0.241211 -6.27583 0.241211H34.2757C34.6757 0.241211 34.9999 0.565479 34.9999 0.96538V27.0342C34.9998 27.4341 34.6756 27.7584 34.2757 27.7584Z" fill="#41479B"/>
<path id="Vector_2" d="M34.9998 0.96538C34.9998 0.565479 34.6756 0.241211 34.2757 0.241211H31.0359L17.6205 9.03058V0.241211H10.3792V9.03058L-3.0361 0.241211H-6.27583C-6.67573 0.241211 -7 0.565479 -7 0.96538V2.83823L4.50968 10.3791H-7V17.6204H4.50968L-7 25.1614V27.0342C-7 27.4341 -6.67573 27.7584 -6.27583 27.7584H-3.03602L10.3793 18.969V27.7584H17.6207V18.969L31.036 27.7584H34.2758C34.6757 27.7584 35 27.4341 35 27.0342V25.1614L23.4903 17.6205H34.9998V10.3792H23.4902L34.9998 2.83823V0.96538Z" fill="#F5F5F5"/>
<g id="Group">
<path id="Vector_3" d="M34.9998 11.8274H16.1723V0.241211H11.8275V11.8274H-7V16.1722H11.8275V27.7584H16.1723V16.1722H34.9998V11.8274Z" fill="#FF4B55"/>
<path id="Vector_4" d="M7.67927 17.6205L-6.97949 27.1358C-6.92822 27.4855 -6.63988 27.7584 -6.27591 27.7584H-5.2785L10.3394 17.6206H7.67927V17.6205Z" fill="#FF4B55"/>
<path id="Vector_5" d="M21.4145 17.6205H18.7544L34.3495 27.7434C34.713 27.7047 34.9999 27.4079 34.9999 27.0342V26.4388L21.4145 17.6205Z" fill="#FF4B55"/>
<path id="Vector_6" d="M-7 1.76482L6.27088 10.3792H8.93098L-6.57811 0.31189C-6.82585 0.426979 -7 0.674302 -7 0.96543V1.76482Z" fill="#FF4B55"/>
<path id="Vector_7" d="M20.2807 10.3791L34.9747 0.840775C34.9136 0.502643 34.6314 0.241211 34.2757 0.241211H33.2382L17.6206 10.3791H20.2807Z" fill="#FF4B55"/>
</g>
</g>
</g>
</g>
</svg>
