<svg width="155" height="40" viewBox="0 0 155 40" fill="none" xmlns="http://www.w3.org/2000/svg">
<g opacity="0.9">
<path opacity="0.9" d="M140.72 28.5844L146.629 20.4522V22.4152L141.001 14.5634H143.945L148.131 20.3721L146.93 20.3921L151.076 14.5634H153.9L148.312 22.275V20.3921L154.261 28.5844H151.256L146.849 22.4152H148.031L143.685 28.5844H140.72Z" fill="white"/>
<path opacity="0.9" d="M134.326 24.0574V21.9742H139.834V24.0574H134.326Z" fill="white"/>
<path opacity="0.9" d="M126.184 28.7847C125.089 28.7847 124.081 28.6111 123.16 28.2639C122.252 27.9034 121.457 27.4026 120.776 26.7617C120.095 26.1074 119.568 25.3395 119.194 24.4582C118.82 23.5769 118.633 22.6154 118.633 21.5739C118.633 20.5323 118.82 19.5709 119.194 18.6895C119.568 17.8082 120.095 17.0471 120.776 16.4061C121.471 15.7518 122.279 15.251 123.2 14.9039C124.121 14.5433 125.129 14.363 126.224 14.363C127.413 14.363 128.481 14.5567 129.429 14.9439C130.391 15.3312 131.199 15.8987 131.853 16.6465L130.21 18.2489C129.663 17.7014 129.069 17.3008 128.428 17.0471C127.8 16.78 127.106 16.6465 126.345 16.6465C125.61 16.6465 124.929 16.7667 124.302 17.007C123.674 17.2474 123.133 17.5879 122.679 18.0285C122.225 18.4692 121.871 18.99 121.618 19.5909C121.377 20.1918 121.257 20.8528 121.257 21.5739C121.257 22.2816 121.377 22.9359 121.618 23.5368C121.871 24.1377 122.225 24.6652 122.679 25.1192C123.133 25.5599 123.667 25.9004 124.282 26.1407C124.896 26.3811 125.577 26.5013 126.325 26.5013C127.019 26.5013 127.687 26.3945 128.328 26.1808C128.982 25.9538 129.603 25.5799 130.19 25.0591L131.673 27.002C130.938 27.5896 130.084 28.0369 129.109 28.3441C128.147 28.6378 127.173 28.7847 126.184 28.7847ZM129.209 26.6615V21.4136H131.673V27.002L129.209 26.6615Z" fill="white"/>
<path opacity="0.9" d="M113.238 28.5844V14.5634H115.842V28.5844H113.238Z" fill="white"/>
<path opacity="0.9" d="M102.868 21.0131H109.859V23.2164H102.868V21.0131ZM103.089 28.5844H100.485V14.5634H110.72V16.7466H103.089V28.5844Z" fill="white"/>
<path opacity="0.9" d="M84.2688 28.5844V14.5634H86.412L95.2052 25.3596H94.1437V14.5634H96.7275V28.5844H94.5843L85.7911 17.7882H86.8527V28.5844H84.2688Z" fill="white"/>
<path opacity="0.9" d="M73.9774 28.7847C72.8824 28.7847 71.8742 28.6045 70.9528 28.2439C70.0315 27.8834 69.2303 27.3826 68.5492 26.7417C67.8682 26.0873 67.3407 25.3262 66.9668 24.4582C66.593 23.5769 66.406 22.6154 66.406 21.5739C66.406 20.5323 66.593 19.5775 66.9668 18.7096C67.3407 17.8282 67.8682 17.0671 68.5492 16.4261C69.2303 15.7718 70.0315 15.2644 70.9528 14.9039C71.8742 14.5433 72.8757 14.363 73.9574 14.363C75.0523 14.363 76.0539 14.5433 76.9619 14.9039C77.8833 15.2644 78.6845 15.7718 79.3655 16.4261C80.0465 17.0671 80.574 17.8282 80.9479 18.7096C81.3218 19.5775 81.5087 20.5323 81.5087 21.5739C81.5087 22.6154 81.3218 23.5769 80.9479 24.4582C80.574 25.3395 80.0465 26.1007 79.3655 26.7417C78.6845 27.3826 77.8833 27.8834 76.9619 28.2439C76.0539 28.6045 75.059 28.7847 73.9774 28.7847ZM73.9574 26.5013C74.6651 26.5013 75.3194 26.3811 75.9203 26.1407C76.5212 25.9004 77.042 25.5599 77.4827 25.1192C77.9233 24.6652 78.2638 24.1444 78.5042 23.5569C78.7579 22.956 78.8848 22.295 78.8848 21.5739C78.8848 20.8528 78.7579 20.1985 78.5042 19.6109C78.2638 19.01 77.9233 18.4892 77.4827 18.0486C77.042 17.5946 76.5212 17.2474 75.9203 17.007C75.3194 16.7667 74.6651 16.6465 73.9574 16.6465C73.2496 16.6465 72.5953 16.7667 71.9944 17.007C71.4069 17.2474 70.8861 17.5946 70.4321 18.0486C69.9914 18.4892 69.6442 19.01 69.3905 19.6109C69.1501 20.1985 69.03 20.8528 69.03 21.5739C69.03 22.2816 69.1501 22.9359 69.3905 23.5368C69.6442 24.1377 69.9914 24.6652 70.4321 25.1192C70.8727 25.5599 71.3935 25.9004 71.9944 26.1407C72.5953 26.3811 73.2496 26.5013 73.9574 26.5013Z" fill="white"/>
<path opacity="0.9" d="M59.6378 28.7847C58.5695 28.7847 57.5746 28.6111 56.6533 28.2639C55.7452 27.9034 54.9507 27.4026 54.2697 26.7617C53.602 26.1074 53.0812 25.3395 52.7073 24.4582C52.3334 23.5769 52.1465 22.6154 52.1465 21.5739C52.1465 20.5323 52.3334 19.5709 52.7073 18.6895C53.0812 17.8082 53.6087 17.0471 54.2897 16.4061C54.9707 15.7518 55.7653 15.251 56.6733 14.9039C57.5813 14.5433 58.5762 14.363 59.6578 14.363C60.8062 14.363 61.8544 14.5633 62.8025 14.9639C63.7506 15.3512 64.5518 15.9321 65.2061 16.7066L63.5236 18.2889C63.0162 17.7415 62.4486 17.3342 61.821 17.0671C61.1934 16.7867 60.5124 16.6465 59.778 16.6465C59.0435 16.6465 58.3692 16.7667 57.7549 17.007C57.154 17.2474 56.6266 17.5879 56.1725 18.0285C55.7319 18.4692 55.3847 18.99 55.131 19.5909C54.8906 20.1918 54.7704 20.8528 54.7704 21.5739C54.7704 22.295 54.8906 22.956 55.131 23.5569C55.3847 24.1578 55.7319 24.6786 56.1725 25.1192C56.6266 25.5599 57.154 25.9004 57.7549 26.1407C58.3692 26.3811 59.0435 26.5013 59.778 26.5013C60.5124 26.5013 61.1934 26.3678 61.821 26.1007C62.4486 25.8203 63.0162 25.3996 63.5236 24.8388L65.2061 26.4412C64.5518 27.2023 63.7506 27.7832 62.8025 28.1838C61.8544 28.5844 60.7995 28.7847 59.6378 28.7847Z" fill="white"/>
</g>
<path d="M35.8985 28.426C35.1534 30.3327 34.085 32.1275 32.7239 33.6863C32.0451 34.4664 31.3029 35.1962 30.4967 35.8516C29.6911 36.5084 28.8285 37.0994 27.9197 37.6152C26.1013 38.644 24.0948 39.3617 22.0179 39.7259C20.9787 39.9045 19.9224 39.9994 18.8647 40.0002H18.468L18.2692 39.9987L18.0712 39.9888C17.807 39.9739 17.542 39.9647 17.2771 39.9449L16.485 39.8641C16.2215 39.8322 15.9594 39.7869 15.6966 39.7486C14.6481 39.5729 13.6125 39.3093 12.6039 38.9593L12.2278 38.8225C12.1032 38.7751 11.975 38.7354 11.8532 38.6808L11.1139 38.3712L10.3902 38.0261C10.2677 37.9709 10.153 37.9029 10.0348 37.8405L9.68149 37.6499C7.8118 36.6076 6.10807 35.2493 4.68283 33.6317C3.26044 32.0127 2.11014 30.145 1.3067 28.127C0.513242 26.1055 0.0702136 23.9395 0.0061099 21.7558C-0.0209561 20.6646 0.0417232 19.5678 0.197709 18.4809L0.261812 18.0742C0.283892 17.9388 0.301698 17.8021 0.332325 17.6682L0.501844 16.8604L0.71125 16.0612C0.743302 15.9273 0.791024 15.7976 0.830199 15.6658L0.954845 15.2719C1.65215 13.1795 2.70844 11.1956 4.08667 9.44903C5.46418 7.70317 7.14441 6.18546 9.04117 4.98234C10.9422 3.78703 13.0576 2.9148 15.2678 2.41244C16.3739 2.16587 17.5021 2.01708 18.6353 1.95756C19.7686 1.89379 20.9089 1.93418 22.0428 2.06455C24.3114 2.32175 26.5408 2.99062 28.6042 4.00172C30.6626 5.02415 32.5587 6.39094 34.1655 8.05319C35.7809 9.70694 37.1043 11.6533 38.0723 13.7726L33.4839 15.714C32.8357 14.085 31.9084 12.5496 30.7296 11.2161C29.5593 9.87486 28.1412 8.73977 26.5735 7.85905C25.7865 7.42329 24.9617 7.05272 24.1091 6.7523L23.9495 6.6949L23.7879 6.64389L23.4645 6.54115C23.248 6.47525 23.0286 6.41857 22.8106 6.35693C22.5898 6.30662 22.3705 6.24781 22.1475 6.20317L21.8135 6.13657L21.6461 6.10327L21.478 6.07634C20.5813 5.92825 19.6667 5.84819 18.7507 5.85527C17.8348 5.85811 16.9188 5.9318 16.0135 6.08626C14.2058 6.40511 12.4451 7.0265 10.8297 7.93203C9.21923 8.84534 7.75696 10.035 6.52973 11.44C5.91362 12.1408 5.36589 12.9018 4.88226 13.7024C4.39935 14.5031 3.9841 15.347 3.64364 16.2213L3.52113 16.5515C3.48195 16.662 3.43494 16.7704 3.40218 16.8831L3.18921 17.5555L3.01043 18.2378C2.97767 18.3512 2.95702 18.4674 2.9328 18.5822L2.86086 18.928C2.68066 19.8533 2.5788 20.7957 2.55387 21.7444C2.51541 23.6412 2.80459 25.5472 3.41215 27.3604C4.03111 29.1693 4.96631 30.8804 6.16932 32.396C7.37518 33.9095 8.85313 35.216 10.5113 36.2512L10.8254 36.4404C10.9308 36.5021 11.0327 36.5708 11.1416 36.6261L11.7884 36.9747L12.4515 37.2921C12.5612 37.3481 12.6766 37.3899 12.7891 37.4387L13.1288 37.5812C14.0398 37.9482 14.9843 38.2394 15.9487 38.4506C16.1909 38.498 16.4323 38.5526 16.6759 38.5944L17.4095 38.7056C17.6553 38.7354 17.9017 38.7567 18.1482 38.7829L18.3333 38.802L18.5192 38.8119L18.8911 38.8303C19.8825 38.8792 20.8804 38.8388 21.869 38.7184C23.8463 38.4711 25.7893 37.8858 27.5835 36.9846C28.4795 36.5325 29.34 36.0039 30.1512 35.4073C30.9639 34.8115 31.7203 34.1376 32.4212 33.4092C33.8258 31.9532 34.9675 30.2406 35.8016 28.3842L35.902 28.4253L35.8985 28.426Z" fill="#007BFF"/>
<path d="M34.1224 7.22896L31.0842 4.83206L33.1375 3.6145L34.9397 5.03691L34.1224 7.22896Z" fill="#007BFF"/>
<path d="M38.5162 13.494L35.9038 8.97159L38.6347 8.19275L40.0002 10.3079L38.5162 13.494Z" fill="#007BFF"/>
<path d="M21.9279 1.44578H18.7954L19.4324 0H21.291L21.9279 1.44578Z" fill="#007BFF"/>
<path d="M37.8782 13.4941C38.6778 15.3977 38.3445 17.3849 37.1338 17.932C35.9231 18.4792 34.2937 17.3792 33.4941 15.4756" fill="#007BFF"/>
<path d="M39.4731 23.0243L38.3297 24.4976C38.2424 24.6094 38.0722 24.6044 37.9921 24.4876L34.496 19.366C34.3609 19.1675 34.6104 18.9346 34.7985 19.0836L39.2057 22.58C39.2114 22.5843 39.2164 22.5886 39.2228 22.5921L39.4216 22.7197C39.5253 22.7863 39.5489 22.9275 39.4738 23.0243H39.4731Z" fill="#007BFF"/>
<path d="M39.8238 25.7087L41.0186 24.4083C41.1166 24.301 41.2804 24.3176 41.3595 24.4422L45.0186 30.2204C45.1663 30.4537 44.8885 30.7259 44.6911 30.5416L40.7162 26.8406L39.8413 26.068C39.7391 25.9773 39.7307 25.8102 39.8238 25.7087Z" fill="#007BFF"/>
<path d="M28.1928 3.3735L25.0603 2.14367L26.266 0.7229L28.1239 1.45238L28.1928 3.3735Z" fill="#007BFF"/>
<path d="M16.1445 1.82247L13.2529 2.65061L13.4758 1.21383L15.1911 0.7229L16.1445 1.82247Z" fill="#007BFF"/>
<path d="M10.8437 3.47508L8.55373 4.81931L8.43408 3.44753L9.7932 2.65063L10.8437 3.47508Z" fill="#007BFF"/>
<path d="M6.7468 6.21169L5.07925 7.71079L4.81909 6.67226L5.8081 5.78308L6.7468 6.21169Z" fill="#007BFF"/>
<path d="M3.61424 9.51719L2.44328 11.3254L1.92749 10.4701L2.62203 9.39771L3.61424 9.51719Z" fill="#007BFF"/>
<path d="M35.143 29.4793C34.6965 29.0923 35.0697 29.0845 35.455 28.6359L41.9577 19.8937C42.4534 19.3164 43.1805 19.1104 43.6256 19.4223L43.798 19.5431C44.2295 19.8457 44.1875 20.5811 43.7068 21.1419L36.0183 29.0301C35.633 29.4786 35.591 29.867 35.1438 29.48L35.143 29.4793Z" fill="#007BFF"/>
<path d="M32.5302 22.2892C32.5302 23.8637 32.2342 25.4425 31.6508 26.915C31.0717 28.3896 30.2051 29.7529 29.1135 30.9212C28.0197 32.0867 26.6982 33.0566 25.2233 33.7456C24.4859 34.0895 23.713 34.3688 22.9159 34.5659C22.1189 34.7644 21.2984 34.8849 20.4723 34.9253C18.8207 35.004 17.1279 34.7616 15.5388 34.1838C13.9503 33.6067 12.4691 32.7 11.2228 31.5281C9.97432 30.3583 8.96292 28.9227 8.27376 27.3368C7.58459 25.7516 7.22971 24.0154 7.229 22.2892C7.229 20.5629 7.58459 18.8267 8.27376 17.2415C8.96292 15.6563 9.97432 14.22 11.2228 13.0503C12.4691 11.8784 13.9503 10.9716 15.5388 10.3946C17.1279 9.81607 18.8207 9.57432 20.4723 9.65301C21.2984 9.69413 22.1182 9.81394 22.9159 10.0124C23.7137 10.2095 24.4866 10.4896 25.2233 10.8327C26.6982 11.5218 28.0197 12.4916 29.1135 13.6571C30.2051 14.8254 31.0724 16.1887 31.6508 17.6633C32.2342 19.1351 32.5309 20.7146 32.5302 22.2892ZM30.6401 22.2892C30.6387 20.9571 30.3633 19.6299 29.8303 18.4176C29.2966 17.2061 28.513 16.1093 27.5478 15.2217C26.5839 14.332 25.4419 13.6536 24.2283 13.231C23.0132 12.8085 21.7299 12.6455 20.473 12.7234C19.2146 12.8035 17.9981 13.1318 16.8994 13.6692C15.7993 14.2037 14.817 14.9453 14.0057 15.8286C13.1966 16.7141 12.5578 17.7392 12.1341 18.8395C11.7068 19.9383 11.4896 21.1081 11.4889 22.2885C11.4889 23.4688 11.7061 24.6386 12.1341 25.7375C12.5578 26.8377 13.1966 27.8621 14.0057 28.7483C14.817 29.6317 15.7993 30.3732 16.8994 30.9078C17.9981 31.4451 19.2146 31.7741 20.473 31.8535C21.7299 31.9315 23.0132 31.7684 24.2283 31.3459C25.4419 30.9234 26.5839 30.2449 27.5478 29.3552C28.5137 28.4676 29.2966 27.3709 29.8303 26.1593C30.3633 24.947 30.6387 23.6199 30.6401 22.2878V22.2892Z" fill="#007BFF"/>
</svg>
