<svg width="40" height="40" viewBox="0 0 40 40" fill="none" xmlns="http://www.w3.org/2000/svg">
<circle cx="20.25" cy="20.25" r="16.25" fill="white"/>
<path d="M31.4951 8.50294C29.2219 6.23192 26.3264 4.68583 23.1746 4.06011C20.0229 3.43439 16.7564 3.75712 13.788 4.98751C10.8196 6.2179 8.28264 8.30071 6.49777 10.9727C4.7129 13.6446 3.76025 16.7858 3.76025 19.999C3.76025 23.2123 4.7129 26.3534 6.49777 29.0254C8.28264 31.6974 10.8196 33.7802 13.788 35.0106C16.7564 36.2409 20.0229 36.5637 23.1746 35.938C26.3264 35.3122 29.2219 33.7661 31.4951 31.4951C34.5395 28.4438 36.2493 24.3094 36.2493 19.999C36.2493 15.6887 34.5395 11.5543 31.4951 8.50294ZM18.3826 24.117C18.4988 24.2331 18.5909 24.371 18.6537 24.5228C18.7166 24.6745 18.7489 24.8371 18.7489 25.0014C18.7489 25.1656 18.7166 25.3283 18.6537 25.48C18.5909 25.6317 18.4988 25.7696 18.3826 25.8857C18.2665 26.0019 18.1286 26.094 17.9769 26.1569C17.8251 26.2197 17.6625 26.2521 17.4983 26.2521C17.334 26.2521 17.1714 26.2197 17.0196 26.1569C16.8679 26.094 16.73 26.0019 16.6139 25.8857L11.6139 20.8857C11.4977 20.7697 11.4055 20.6318 11.3426 20.48C11.2796 20.3283 11.2473 20.1656 11.2473 20.0014C11.2473 19.8371 11.2796 19.6744 11.3426 19.5227C11.4055 19.371 11.4977 19.2331 11.6139 19.117L16.6139 14.117C16.73 14.0009 16.8679 13.9087 17.0196 13.8459C17.1714 13.783 17.334 13.7507 17.4983 13.7507C17.6625 13.7507 17.8251 13.783 17.9769 13.8459C18.1286 13.9087 18.2665 14.0009 18.3826 14.117C18.4988 14.2331 18.5909 14.371 18.6537 14.5228C18.7166 14.6745 18.7489 14.8371 18.7489 15.0014C18.7489 15.1656 18.7166 15.3283 18.6537 15.48C18.5909 15.6317 18.4988 15.7696 18.3826 15.8857L14.2639 19.9998L18.3826 24.117ZM27.1326 24.117C27.2488 24.2331 27.3409 24.371 27.4037 24.5228C27.4666 24.6745 27.4989 24.8371 27.4989 25.0014C27.4989 25.1656 27.4666 25.3283 27.4037 25.48C27.3409 25.6317 27.2488 25.7696 27.1326 25.8857C27.0165 26.0019 26.8786 26.094 26.7269 26.1569C26.5751 26.2197 26.4125 26.2521 26.2483 26.2521C26.084 26.2521 25.9214 26.2197 25.7696 26.1569C25.6179 26.094 25.48 26.0019 25.3639 25.8857L20.3639 20.8857C20.2477 20.7697 20.1555 20.6318 20.0926 20.48C20.0296 20.3283 19.9973 20.1656 19.9973 20.0014C19.9973 19.8371 20.0296 19.6744 20.0926 19.5227C20.1555 19.371 20.2477 19.2331 20.3639 19.117L25.3639 14.117C25.48 14.0009 25.6179 13.9087 25.7696 13.8459C25.9214 13.783 26.084 13.7507 26.2483 13.7507C26.4125 13.7507 26.5751 13.783 26.7269 13.8459C26.8786 13.9087 27.0165 14.0009 27.1326 14.117C27.2488 14.2331 27.3409 14.371 27.4037 14.5228C27.4666 14.6745 27.4989 14.8371 27.4989 15.0014C27.4989 15.1656 27.4666 15.3283 27.4037 15.48C27.3409 15.6317 27.2488 15.7696 27.1326 15.8857L23.0186 19.9998L27.1326 24.117Z" fill="#3395FF"/>
</svg>
