<svg width="147" height="38" viewBox="0 0 147 38" fill="none" xmlns="http://www.w3.org/2000/svg">
<g id="Group 41560">
<g id="Config-X" opacity="0.9">
<path id="Vector" opacity="0.9" d="M133.684 27.1551L139.298 19.4295V21.2943L133.95 13.8351H136.748L140.725 19.3534L139.583 19.3724L143.522 13.8351H146.205L140.896 21.1611V19.3724L146.547 27.1551H143.693L139.507 21.2943H140.63L136.5 27.1551H133.684Z" fill="white"/>
<path id="Vector_2" opacity="0.9" d="M127.609 22.8546V20.8756H132.842V22.8546H127.609Z" fill="white"/>
<path id="Vector_3" opacity="0.9" d="M119.875 27.3454C118.835 27.3454 117.877 27.1805 117.002 26.8506C116.139 26.5081 115.384 26.0324 114.737 25.4235C114.09 24.8019 113.589 24.0725 113.234 23.2352C112.879 22.3979 112.701 21.4846 112.701 20.4951C112.701 19.5056 112.879 18.5922 113.234 17.755C113.589 16.9177 114.09 16.1946 114.737 15.5857C115.397 14.9641 116.164 14.4884 117.04 14.1585C117.915 13.816 118.873 13.6448 119.913 13.6448C121.042 13.6448 122.057 13.8287 122.958 14.1966C123.871 14.5645 124.638 15.1036 125.26 15.814L123.7 17.3363C123.18 16.8162 122.615 16.4356 122.006 16.1946C121.41 15.9409 120.75 15.814 120.027 15.814C119.329 15.814 118.682 15.9282 118.086 16.1566C117.49 16.3849 116.976 16.7084 116.545 17.127C116.114 17.5456 115.777 18.0404 115.536 18.6112C115.308 19.1821 115.194 19.81 115.194 20.4951C115.194 21.1674 115.308 21.789 115.536 22.3599C115.777 22.9307 116.114 23.4318 116.545 23.8631C116.976 24.2818 117.484 24.6053 118.067 24.8336C118.651 25.0619 119.298 25.1761 120.008 25.1761C120.668 25.1761 121.302 25.0746 121.911 24.8717C122.533 24.656 123.123 24.3008 123.681 23.8061L125.089 25.6518C124.391 26.21 123.579 26.635 122.653 26.9268C121.74 27.2058 120.814 27.3454 119.875 27.3454ZM122.748 25.3283V20.3428H125.089V25.6518L122.748 25.3283Z" fill="white"/>
<path id="Vector_4" opacity="0.9" d="M107.576 27.1551V13.8351H110.05V27.1551H107.576Z" fill="white"/>
<path id="Vector_5" opacity="0.9" d="M97.7248 19.9623H104.366V22.0554H97.7248V19.9623ZM97.9342 27.1551H95.4604V13.8351H105.184V15.9092H97.9342V27.1551Z" fill="white"/>
<path id="Vector_6" opacity="0.9" d="M80.0552 27.1551V13.8351H82.0912L90.4448 24.0915H89.4363V13.8351H91.891V27.1551H89.8549L81.5013 16.8987H82.5099V27.1551H80.0552Z" fill="white"/>
<path id="Vector_7" opacity="0.9" d="M70.2788 27.3454C69.2385 27.3454 68.2807 27.1741 67.4054 26.8316C66.5301 26.4891 65.769 26.0134 65.122 25.4045C64.475 24.7829 63.9739 24.0598 63.6187 23.2352C63.2635 22.3979 63.0859 21.4846 63.0859 20.4951C63.0859 19.5056 63.2635 18.5986 63.6187 17.774C63.9739 16.9367 64.475 16.2136 65.122 15.6047C65.769 14.9831 66.5301 14.5011 67.4054 14.1585C68.2807 13.816 69.2322 13.6448 70.2597 13.6448C71.3 13.6448 72.2514 13.816 73.114 14.1585C73.9893 14.5011 74.7505 14.9831 75.3975 15.6047C76.0444 16.2136 76.5455 16.9367 76.9007 17.774C77.2559 18.5986 77.4335 19.5056 77.4335 20.4951C77.4335 21.4846 77.2559 22.3979 76.9007 23.2352C76.5455 24.0725 76.0444 24.7955 75.3975 25.4045C74.7505 26.0134 73.9893 26.4891 73.114 26.8316C72.2514 27.1741 71.3063 27.3454 70.2788 27.3454ZM70.2597 25.1761C70.9321 25.1761 71.5537 25.0619 72.1245 24.8336C72.6954 24.6053 73.1901 24.2818 73.6088 23.8631C74.0274 23.4318 74.3509 22.9371 74.5792 22.3789C74.8203 21.8081 74.9408 21.1801 74.9408 20.4951C74.9408 19.81 74.8203 19.1884 74.5792 18.6303C74.3509 18.0594 74.0274 17.5647 73.6088 17.146C73.1901 16.7147 72.6954 16.3849 72.1245 16.1566C71.5537 15.9282 70.9321 15.814 70.2597 15.814C69.5874 15.814 68.9658 15.9282 68.3949 16.1566C67.8367 16.3849 67.342 16.7147 66.9107 17.146C66.4921 17.5647 66.1622 18.0594 65.9212 18.6303C65.6929 19.1884 65.5787 19.81 65.5787 20.4951C65.5787 21.1674 65.6929 21.789 65.9212 22.3599C66.1622 22.9307 66.4921 23.4318 66.9107 23.8631C67.3293 24.2818 67.8241 24.6053 68.3949 24.8336C68.9658 25.0619 69.5874 25.1761 70.2597 25.1761Z" fill="white"/>
<path id="Vector_8" opacity="0.9" d="M56.6558 27.3454C55.6409 27.3454 54.6958 27.1805 53.8205 26.8506C52.9579 26.5081 52.2031 26.0324 51.5561 25.4235C50.9218 24.8019 50.4271 24.0725 50.0719 23.2352C49.7167 22.3979 49.5391 21.4846 49.5391 20.4951C49.5391 19.5056 49.7167 18.5922 50.0719 17.755C50.4271 16.9177 50.9282 16.1946 51.5751 15.5857C52.2221 14.9641 52.9769 14.4884 53.8395 14.1585C54.7022 13.816 55.6472 13.6448 56.6748 13.6448C57.7658 13.6448 58.7616 13.8351 59.6623 14.2156C60.563 14.5835 61.3241 15.1354 61.9457 15.8711L60.3473 17.3744C59.8653 16.8543 59.3261 16.4674 58.7299 16.2136C58.1337 15.9472 57.4867 15.814 56.789 15.814C56.0912 15.814 55.4506 15.9282 54.8671 16.1566C54.2962 16.3849 53.7951 16.7084 53.3638 17.127C52.9452 17.5456 52.6154 18.0404 52.3743 18.6112C52.146 19.1821 52.0318 19.81 52.0318 20.4951C52.0318 21.1801 52.146 21.8081 52.3743 22.3789C52.6154 22.9498 52.9452 23.4445 53.3638 23.8631C53.7951 24.2818 54.2962 24.6053 54.8671 24.8336C55.4506 25.0619 56.0912 25.1761 56.789 25.1761C57.4867 25.1761 58.1337 25.0493 58.7299 24.7955C59.3261 24.5291 59.8653 24.1295 60.3473 23.5967L61.9457 25.119C61.3241 25.8421 60.563 26.3939 59.6623 26.7745C58.7616 27.1551 57.7594 27.3454 56.6558 27.3454Z" fill="white"/>
</g>
<g id="Group 41555">
<g id="Group 41553">
<g id="Group">
<path id="Vector_9" d="M34.1035 27.0047C33.3958 28.8161 32.3808 30.5211 31.0877 32.0019C30.4429 32.743 29.7378 33.4363 28.9718 34.059C28.2065 34.683 27.3871 35.2443 26.5237 35.7344C24.7962 36.7117 22.8901 37.3936 20.917 37.7396C19.9298 37.9092 18.9263 37.9994 17.9215 38.0001H17.5446L17.3558 37.9988L17.1677 37.9893C16.9166 37.9752 16.6649 37.9664 16.4132 37.9476L15.6608 37.8709C15.4104 37.8406 15.1614 37.7975 14.9117 37.7611C13.9157 37.5942 12.9318 37.3438 11.9737 37.0113L11.6164 36.8814C11.498 36.8363 11.3762 36.7986 11.2605 36.7467L10.5582 36.4526L9.87068 36.1248C9.7543 36.0723 9.64536 36.0077 9.53303 35.9484L9.19742 35.7674C7.42121 34.7772 5.80266 33.4868 4.44869 31.9501C3.09742 30.412 2.00463 28.6377 1.24137 26.7206C0.48758 24.8002 0.0667029 22.7425 0.00580441 20.6679C-0.0199083 19.6313 0.0396371 18.5893 0.187823 17.5568L0.248721 17.1704C0.269698 17.0418 0.286613 16.9119 0.315709 16.7847L0.476752 16.0174L0.675687 15.2581C0.706137 15.1309 0.751473 15.0077 0.788689 14.8825L0.907103 14.5082C1.56954 12.5205 2.57301 10.6358 3.88233 8.97653C5.19097 7.31796 6.78719 5.87614 8.58911 4.73318C10.3951 3.59763 12.4047 2.76902 14.5044 2.29178C15.5552 2.05753 16.627 1.91618 17.7036 1.85964C18.7801 1.79906 19.8634 1.83742 20.9407 1.96128C23.0958 2.20562 25.2137 2.84105 27.174 3.80159C29.1295 4.7729 30.9307 6.07135 32.4573 7.65049C33.9919 9.22155 35.2491 11.0706 36.1687 13.0839L31.8097 14.9283C31.194 13.3808 30.313 11.9221 29.1931 10.6553C28.0814 9.38107 26.7341 8.30274 25.2448 7.46605C24.4971 7.05208 23.7136 6.70004 22.9036 6.41464L22.7521 6.36012L22.5985 6.31165L22.2913 6.21405C22.0856 6.15145 21.8772 6.0976 21.6701 6.03904C21.4603 5.99125 21.2519 5.93538 21.0401 5.89297L20.7228 5.8297L20.5638 5.79806L20.4041 5.77248C19.5522 5.6318 18.6834 5.55574 17.8132 5.56247C16.943 5.56516 16.0729 5.63516 15.2128 5.7819C13.4955 6.08481 11.8228 6.67513 10.2882 7.53538C8.75827 8.40303 7.36911 9.5332 6.20324 10.868C5.61794 11.5337 5.09759 12.2566 4.63815 13.0173C4.17938 13.7779 3.78489 14.5796 3.46146 15.4102L3.34507 15.7239C3.30786 15.8289 3.2632 15.9319 3.23207 16.0389L3.02975 16.6777L2.85991 17.3259C2.82879 17.4336 2.80916 17.544 2.78616 17.653L2.71782 17.9815C2.54662 18.8606 2.44986 19.7559 2.42618 20.6572C2.38964 22.4591 2.66436 24.2698 3.24154 25.9923C3.82955 27.7108 4.71799 29.3364 5.86085 30.7762C7.00642 32.214 8.41047 33.4552 9.98571 34.4386L10.2841 34.6183C10.3843 34.6769 10.481 34.7422 10.5846 34.7947L11.1989 35.1259L11.8289 35.4274C11.9331 35.4806 12.0427 35.5203 12.1496 35.5668L12.4724 35.7021C13.3378 36.0507 14.2351 36.3274 15.1513 36.528C15.3813 36.5731 15.6107 36.6249 15.8421 36.6646L16.5391 36.7703C16.7725 36.7986 17.0066 36.8188 17.2408 36.8437L17.4167 36.8619L17.5933 36.8713L17.9465 36.8888C18.8884 36.9352 19.8364 36.8969 20.7756 36.7824C22.654 36.5475 24.4999 35.9915 26.2043 35.1353C27.0556 34.7058 27.873 34.2037 28.6437 33.6369C29.4157 33.0708 30.1343 32.4307 30.8001 31.7387C32.1345 30.3555 33.2192 28.7285 34.0115 26.965L34.1069 27.004L34.1035 27.0047Z" fill="#007BFF"/>
</g>
<path id="Vector_10" d="M32.4165 6.86757L29.5303 4.59052L31.4809 3.43384L33.1929 4.78513L32.4165 6.86757Z" fill="#007BFF"/>
<path id="Vector_11" d="M36.5902 12.8192L34.1084 8.52298L36.7028 7.78308L38 9.79243L36.5902 12.8192Z" fill="#007BFF"/>
<path id="Vector_12" d="M20.8314 1.37349H17.8555L18.4606 0H20.2263L20.8314 1.37349Z" fill="#007BFF"/>
<path id="Vector_13" d="M35.9842 12.8193C36.7438 14.6277 36.4271 16.5155 35.277 17.0353C34.1268 17.5551 32.5789 16.5101 31.8193 14.7017" fill="#007BFF"/>
<path id="Vector_14" d="M37.4997 21.873L36.4134 23.2726C36.3305 23.3789 36.1688 23.3741 36.0928 23.2631L32.7714 18.3976C32.643 18.209 32.8801 17.9877 33.0588 18.1293L37.2456 21.4509C37.251 21.455 37.2558 21.459 37.2619 21.4624L37.4508 21.5836C37.5493 21.6469 37.5717 21.7811 37.5004 21.873H37.4997Z" fill="#007BFF"/>
<path id="Vector_15" d="M37.8326 24.4233L38.9676 23.188C39.0607 23.0861 39.2163 23.1018 39.2914 23.2201L42.7676 28.7095C42.9079 28.9311 42.6439 29.1897 42.4564 29.0146L38.6803 25.4986L37.8492 24.7647C37.7521 24.6785 37.7441 24.5198 37.8326 24.4233Z" fill="#007BFF"/>
<path id="Vector_16" d="M26.783 3.20484L23.8071 2.0365L24.9526 0.686768L26.7176 1.37977L26.783 3.20484Z" fill="#007BFF"/>
<path id="Vector_17" d="M15.3373 1.73136L12.5903 2.51809L12.8021 1.15315L14.4316 0.686768L15.3373 1.73136Z" fill="#007BFF"/>
<path id="Vector_18" d="M10.3014 3.30129L8.12587 4.57831L8.01221 3.27511L9.30337 2.51807L10.3014 3.30129Z" fill="#007BFF"/>
<path id="Vector_19" d="M6.40945 5.9012L4.82528 7.32534L4.57812 6.33874L5.51768 5.49402L6.40945 5.9012Z" fill="#007BFF"/>
<path id="Vector_20" d="M3.43395 9.04125L2.32155 10.7591L1.83154 9.94649L2.49136 8.92773L3.43395 9.04125Z" fill="#007BFF"/>
<path id="Vector_21" d="M33.3856 28.0053C32.9614 27.6377 33.3159 27.6302 33.6819 27.2041L39.8595 18.899C40.3304 18.3505 41.0212 18.1548 41.444 18.4511L41.6077 18.566C42.0177 18.8534 41.9778 19.552 41.5211 20.0848L34.217 27.5786C33.851 28.0047 33.8111 28.3737 33.3862 28.006L33.3856 28.0053Z" fill="#007BFF"/>
<path id="Vector_22" d="M30.9038 21.1747C30.9038 22.6705 30.6227 24.1704 30.0684 25.5693C29.5182 26.9701 28.6949 28.2652 27.6579 29.3752C26.6189 30.4824 25.3634 31.4037 23.9623 32.0584C23.2617 32.385 22.5274 32.6504 21.7703 32.8376C21.0131 33.0262 20.2336 33.1407 19.4488 33.1791C17.8797 33.2538 16.2716 33.0235 14.762 32.4746C13.253 31.9264 11.8458 31.065 10.6618 29.9517C9.47573 28.8404 8.5149 27.4766 7.86019 25.97C7.20548 24.464 6.86835 22.8147 6.86768 21.1747C6.86768 19.5347 7.20548 17.8854 7.86019 16.3794C8.5149 14.8735 9.47573 13.509 10.6618 12.3977C11.8458 11.2845 13.253 10.4231 14.762 9.87483C16.2716 9.32526 17.8797 9.0956 19.4488 9.17036C20.2336 9.20942 21.0124 9.32324 21.7703 9.51182C22.5281 9.69905 23.2624 9.96508 23.9623 10.291C25.3634 10.9457 26.6189 11.867 27.6579 12.9742C28.6949 14.0842 29.5189 15.3793 30.0684 16.7802C30.6227 18.1783 30.9045 19.6789 30.9038 21.1747ZM29.1083 21.1747C29.1069 19.9092 28.8453 18.6484 28.3389 17.4968C27.8319 16.3458 27.0875 15.3039 26.1705 14.4606C25.2548 13.6154 24.17 12.9709 23.017 12.5695C21.8626 12.1681 20.6436 12.0132 19.4494 12.0873C18.254 12.1634 17.0983 12.4752 16.0545 12.9857C15.0094 13.4935 14.0762 14.198 13.3055 15.0372C12.5369 15.8784 11.93 16.8522 11.5275 17.8975C11.1216 18.9414 10.9153 20.0527 10.9146 21.174C10.9146 22.2954 11.1209 23.4067 11.5275 24.4506C11.93 25.4958 12.5369 26.469 13.3055 27.3109C14.0762 28.1501 15.0094 28.8545 16.0545 29.3624C17.0983 29.8729 18.254 30.1854 19.4494 30.2608C20.6436 30.3349 21.8626 30.18 23.017 29.7786C24.17 29.3772 25.2548 28.7326 26.1705 27.8874C27.0882 27.0442 27.8319 26.0023 28.3389 24.8513C28.8453 23.6996 29.1069 22.4389 29.1083 21.1734V21.1747Z" fill="#007BFF"/>
</g>
</g>
</g>
</svg>
