<svg width="214" height="159" viewBox="0 0 214 159" fill="none" xmlns="http://www.w3.org/2000/svg">
<g clip-path="url(#clip0_852_4466)">
<path d="M214 139.729H0V139.836H214V139.729Z" fill="#EBEBEB"/>
<path d="M101.44 120.698H18.7935C17.4453 120.698 16.3496 119.605 16.3496 118.261V2.43657C16.3496 1.0924 17.4453 0 18.7935 0H101.44C102.788 0 103.884 1.0924 103.884 2.43657V118.261C103.884 119.605 102.788 120.698 101.44 120.698ZM18.7935 0.10668C17.5052 0.10668 16.4566 1.15214 16.4566 2.43657V118.261C16.4566 119.546 17.5052 120.591 18.7935 120.591H101.44C102.729 120.591 103.777 119.546 103.777 118.261V2.43657C103.777 1.15214 102.729 0.10668 101.44 0.10668H18.7935Z" fill="#EBEBEB"/>
<path d="M194.017 120.698H111.37C110.022 120.698 108.926 119.605 108.926 118.261V2.43657C108.926 1.0924 110.022 0 111.37 0H194.017C195.365 0 196.461 1.0924 196.461 2.43657V118.261C196.461 119.605 195.365 120.698 194.017 120.698ZM111.37 0.10668C110.082 0.10668 109.033 1.15214 109.033 2.43657V118.261C109.033 119.546 110.082 120.591 111.37 120.591H194.017C195.305 120.591 196.354 119.546 196.354 118.261V2.43657C196.354 1.15214 195.305 0.10668 194.017 0.10668H111.37Z" fill="#EBEBEB"/>
<path d="M192.557 143.792H179.045V143.899H192.557V143.792Z" fill="#EBEBEB"/>
<path d="M143.526 142.636H129.226V142.742H143.526V142.636Z" fill="#EBEBEB"/>
<path d="M196.461 147.757H169.74V147.864H196.461V147.757Z" fill="#EBEBEB"/>
<path d="M30.6833 147.039H22.4529V147.146H30.6833V147.039Z" fill="#EBEBEB"/>
<path d="M47.4609 147.039H34.4968V147.146H47.4609V147.039Z" fill="#EBEBEB"/>
<path d="M104.492 145.234H81.1401V145.341H104.492V145.234Z" fill="#EBEBEB"/>
<path d="M195.361 85.4681C191.021 83.6546 183.826 85.4041 177.868 92.6072C175.116 95.9356 172.467 100.817 171.748 105.81C171.795 100.109 171.851 93.9855 171.91 88.2077C172.831 84.427 173.678 82.6987 174.988 80.0744C179.358 71.3181 182.97 72.2825 188.906 65.4294C198.78 54.0274 204.443 32.5165 194.616 41.0893C185.709 48.8599 181.404 56.6347 178.408 63.3811C174.363 72.4959 172.737 78.8583 171.94 85.2463C171.996 79.8184 172.052 74.8343 172.095 70.9896C172.244 58.4483 172.591 54.4158 172.651 53.1697C172.805 50.1528 173.807 48.3947 174.08 47.9638C176.422 44.2982 180.098 41.9001 183.698 37.7225C192.086 27.9933 196.931 15.9427 192.891 14.8247C188.667 13.6598 183.111 18.9682 176.944 31.4284C173.408 38.5717 172.51 40.2615 171.795 54.2579C171.731 55.474 171.465 60.057 171.337 66.4279C170.34 59.5791 168.444 52.7772 165.131 48.2625C158.749 39.5616 153.9 38.7295 150.361 39.5616C146.825 40.3937 148.306 49.5298 152.295 54.4115C158.3 61.7596 168.298 60.1978 171.268 69.974C171.119 78.6065 171.012 89.5391 170.952 99.7206C169.942 94.4634 168.889 90.0895 166.569 85.9717C162.255 78.3163 156.948 74.9751 153.297 78.5809C151.024 80.8212 153.661 87.1068 158.416 89.6884C163.239 92.3085 167.194 95.9356 168.726 98.1118C169.086 98.6196 170.267 100.57 170.943 101.688C170.879 114.118 170.888 125.089 170.995 128.831L171.632 128.87C171.594 127.905 171.624 121.581 171.688 113.213C172.737 102.767 180.137 102.2 184.866 100.216C193.306 96.6738 199.696 87.2817 195.356 85.4681H195.361Z" fill="#E6E6E6"/>
<path d="M165.212 139.731H177.689C178.369 139.731 178.955 139.334 179.092 138.779L179.978 123.357H162.923L163.809 138.779C163.946 139.334 164.532 139.731 165.212 139.731Z" fill="#E6E6E6"/>
<path d="M163.235 128.606H179.666C180.06 128.606 180.389 128.089 180.436 127.407L180.77 122.196C180.822 121.394 180.462 120.694 180 120.694H162.897C162.435 120.694 162.075 121.394 162.126 122.196L162.46 127.407C162.503 128.089 162.837 128.606 163.231 128.606H163.235Z" fill="#F5F5F5"/>
<path d="M79.608 106.471H63.4167V136.9H79.608V106.471Z" fill="#F0F0F0"/>
<path d="M146.38 136.904H66.5283V139.729H146.38V136.904Z" fill="#F0F0F0"/>
<path d="M79.608 136.904H149.488V106.475H79.608V136.904Z" fill="#FAFAFA"/>
<path d="M85.9767 119.537H143.123V110.175H85.9767V119.537Z" fill="#F0F0F0"/>
<path d="M85.9767 131.57H143.123V122.208H85.9767V131.57Z" fill="#F0F0F0"/>
<path d="M107.539 109.014H121.561C122.104 109.014 122.545 109.453 122.545 109.995V110.038C122.545 110.58 122.104 111.019 121.561 111.019H107.539C106.996 111.019 106.555 110.58 106.555 110.038V109.995C106.555 109.453 106.996 109.014 107.539 109.014Z" fill="#FAFAFA"/>
<path d="M107.539 121.043H121.561C122.104 121.043 122.545 121.482 122.545 122.024V122.067C122.545 122.609 122.104 123.049 121.561 123.049H107.539C106.996 123.049 106.555 122.609 106.555 122.067V122.024C106.555 121.482 106.996 121.043 107.539 121.043Z" fill="#FAFAFA"/>
<path d="M151.649 103.744H79.6123V106.471H151.649V103.744Z" fill="#F0F0F0"/>
<path d="M61.1526 106.471H79.6079V103.744H61.1526V106.471Z" fill="#E6E6E6"/>
<path d="M47.8674 115.867C46.0184 114.903 42.7742 115.402 39.8681 118.359C38.5242 119.725 37.1674 121.781 36.6624 123.962C36.902 121.444 37.1588 118.739 37.4028 116.187C37.9549 114.553 38.3915 113.819 39.072 112.709C41.3361 109.005 42.8983 109.569 45.7788 106.765C50.5766 102.101 53.8979 92.8072 49.2284 96.2252C44.9955 99.3232 42.7956 102.596 41.2163 105.464C39.0806 109.338 38.1218 112.091 37.5269 114.881C37.758 112.483 37.972 110.286 38.139 108.587C38.6825 103.048 38.9907 101.282 39.0634 100.736C39.2475 99.4086 39.7568 98.6703 39.8938 98.4868C41.0665 96.9549 42.7828 96.0332 44.5333 94.3263C48.6121 90.345 51.2101 85.2031 49.4681 84.5544C47.6448 83.8802 44.9912 86.0138 41.7898 91.2881C39.9537 94.3093 39.4914 95.0219 38.644 101.184C38.5712 101.717 38.2802 103.735 37.9806 106.543C37.8008 103.479 37.223 100.403 35.9305 98.282C33.4438 94.194 31.3295 93.6436 29.7373 93.8783C28.1409 94.113 28.449 98.2052 30.0284 100.514C32.3995 103.987 36.8806 103.676 37.818 108.109C37.4242 111.92 36.9577 116.746 36.5468 121.244C36.2986 118.884 35.999 116.908 35.1344 115.001C33.5208 111.455 31.2995 109.778 29.549 111.233C28.4619 112.138 29.3864 115.014 31.3894 116.337C33.4224 117.676 35.0317 119.43 35.6266 120.45C35.7636 120.689 36.213 121.594 36.4698 122.114C35.969 127.606 35.5538 132.454 35.4597 134.109L35.7379 134.148C35.7593 133.721 36.0118 130.926 36.3585 127.231C37.2188 122.656 40.5101 122.682 42.6758 121.986C46.5406 120.74 49.7206 116.832 47.8717 115.867H47.8674Z" fill="#F0F0F0"/>
<path d="M19.2343 106.36C21.6268 105.285 25.6628 106.151 29.0954 110.081C30.679 111.895 32.2326 114.579 32.7034 117.353C32.5922 114.173 32.468 110.76 32.3482 107.538C31.779 105.443 31.2825 104.491 30.5121 103.049C27.9441 98.2312 25.9453 98.8243 22.5299 95.0905C16.8503 88.8775 13.375 76.9678 18.9818 81.6019C24.0664 85.8008 26.583 90.0723 28.355 93.7933C30.7475 98.8158 31.749 102.34 32.2883 105.891C32.177 102.865 32.07 100.087 31.9887 97.941C31.7148 90.9471 31.4622 88.7068 31.4109 88.0113C31.2782 86.33 30.6961 85.3656 30.5335 85.1266C29.1724 83.1168 27.0881 81.8366 25.0166 79.5579C20.193 74.2581 17.3083 67.6098 19.5467 66.927C21.8836 66.2144 25.0636 69.0905 28.6888 75.9479C30.7689 79.878 31.2953 80.8082 31.9031 88.6044C31.9544 89.2829 32.1727 91.8347 32.3396 95.385C32.7933 91.5488 33.7478 87.7296 35.5282 85.1608C38.9565 80.2108 41.6486 79.6774 43.6346 80.0871C45.6205 80.4967 44.9271 85.6174 42.7786 88.3996C39.5429 92.5857 33.9404 91.8645 32.4338 97.3607C32.6478 102.174 32.8704 108.268 33.0587 113.947C33.5423 110.999 34.0645 108.545 35.2971 106.215C37.5869 101.88 40.4973 99.9381 42.5902 101.897C43.8914 103.113 42.5132 106.659 39.9024 108.169C37.2531 109.701 35.1002 111.784 34.2785 113.021C34.0859 113.311 33.4567 114.412 33.0972 115.048C33.3198 121.978 33.4781 128.097 33.4738 130.184L33.1186 130.214C33.1272 129.676 33.0159 126.147 32.8532 121.483C32.1128 115.675 27.9783 115.466 25.3076 114.429C20.5482 112.578 16.8418 107.44 19.2386 106.36H19.2343Z" fill="#E6E6E6"/>
<path d="M29.3564 139.73H40.4244C41.0279 139.73 41.5501 139.375 41.6699 138.885L42.4574 125.204H27.3276L28.1152 138.885C28.235 139.375 28.7572 139.73 29.3606 139.73H29.3564Z" fill="#E6E6E6"/>
<path d="M27.6016 129.86H42.175C42.5259 129.86 42.817 129.403 42.8555 128.797L43.1551 124.176C43.2022 123.468 42.8812 122.845 42.4746 122.845H27.3063C26.8954 122.845 26.5787 123.468 26.6257 124.176L26.9253 128.797C26.9639 129.403 27.2592 129.86 27.6059 129.86H27.6016Z" fill="#F5F5F5"/>
<path d="M116.942 10.6299H25.7612V62.0325H116.942V10.6299Z" fill="#E6E6E6"/>
<path d="M119.793 10.6299H26.2449V62.0325H119.793V10.6299Z" fill="#F5F5F5"/>
<path d="M117.516 14.6792V57.9742C117.516 58.9599 116.716 59.7579 115.727 59.7579L30.3109 59.7579C29.3222 59.7579 28.5218 58.9599 28.5218 57.9742V14.6792C28.5218 13.6935 29.3222 12.8955 30.3109 12.8955L115.727 12.8955C116.716 12.8955 117.516 13.6935 117.516 14.6792Z" fill="white"/>
<path d="M107 159C152.831 159 189.985 156.837 189.985 154.169C189.985 151.502 152.831 149.339 107 149.339C61.1688 149.339 24.0151 151.502 24.0151 154.169C24.0151 156.837 61.1688 159 107 159Z" fill="#F5F5F5"/>
<path d="M172.018 109.859H161.746V109.433H172.018C174.402 109.433 176.708 108.033 177.894 105.865L178.271 106.07C177.012 108.374 174.556 109.859 172.018 109.859Z" fill="#007BFF"/>
<path d="M159.713 109.433H155.505V109.859H159.713V109.433Z" fill="#007BFF"/>
<path d="M172.017 108.365H51.8351C49.0103 108.365 46.9003 106.061 47.1485 103.245L53.6455 28.9956C53.8938 26.1793 56.4061 23.875 59.2309 23.875H179.413C182.238 23.875 184.348 26.1793 184.1 28.9956L177.603 103.245C177.355 106.061 174.842 108.365 172.017 108.365Z" fill="#007BFF"/>
<path d="M169.514 106.812H52.3273C49.9219 106.812 48.1243 104.849 48.334 102.451L54.2533 34.8118C54.3132 34.1205 54.9252 33.5615 55.6186 33.5615H179.037C179.73 33.5615 180.244 34.1205 180.184 34.8118L174.264 102.451C174.055 104.849 171.915 106.812 169.509 106.812H169.514Z" fill="white"/>
<path d="M67.2644 30.1693C63.7848 30.1693 61.1996 27.3444 61.5035 23.8752C61.8074 20.4059 64.8847 17.5811 68.3686 17.5811C71.8526 17.5811 74.4334 20.4059 74.1295 23.8752H71.5615C71.7413 21.8141 70.209 20.1414 68.1418 20.1414C66.0746 20.1414 64.2513 21.8141 64.0715 23.8752C63.8918 25.932 65.424 27.609 67.4912 27.609L67.2687 30.1693H67.2644Z" fill="#263238"/>
<path d="M92.6663 30.1693C89.1866 30.1693 86.6015 27.3444 86.9054 23.8752C87.2093 20.4059 90.2866 17.5811 93.7705 17.5811C97.2544 17.5811 99.8353 20.4059 99.5314 23.8752H96.9634C97.1431 21.8141 95.6109 20.1414 93.5437 20.1414C91.4764 20.1414 89.6531 21.8141 89.4734 23.8752C89.2936 25.932 90.8259 27.609 92.8931 27.609L92.6705 30.1693H92.6663Z" fill="#263238"/>
<path d="M118.068 30.1693C114.588 30.1693 112.003 27.3444 112.307 23.8752C112.611 20.4059 115.688 17.5811 119.172 17.5811C122.656 17.5811 125.237 20.4059 124.933 23.8752H122.365C122.545 21.8141 121.013 20.1414 118.946 20.1414C116.878 20.1414 115.055 21.8141 114.875 23.8752C114.695 25.932 116.228 27.609 118.295 27.609L118.072 30.1693H118.068Z" fill="#263238"/>
<path d="M143.47 30.1693C139.99 30.1693 137.405 27.3444 137.709 23.8752C138.013 20.4059 141.09 17.5811 144.574 17.5811C148.058 17.5811 150.639 20.4059 150.335 23.8752H147.767C147.947 21.8141 146.414 20.1414 144.347 20.1414C142.28 20.1414 140.457 21.8141 140.277 23.8752C140.097 25.932 141.629 27.609 143.697 27.609L143.474 30.1693H143.47Z" fill="#263238"/>
<path d="M168.872 30.1693C165.392 30.1693 162.807 27.3444 163.111 23.8752C163.415 20.4059 166.492 17.5811 169.976 17.5811C173.46 17.5811 176.041 20.4059 175.737 23.8752H173.169C173.348 21.8141 171.816 20.1414 169.749 20.1414C167.682 20.1414 165.858 21.8141 165.679 23.8752C165.499 25.932 167.031 27.609 169.098 27.609L168.876 30.1693H168.872Z" fill="#263238"/>
<path d="M169.206 103.744H53.3588C53.239 103.744 53.1534 103.651 53.162 103.531L58.9357 37.5346C58.9442 37.4152 59.0512 37.3213 59.1668 37.3213H175.009C175.129 37.3213 175.215 37.4152 175.206 37.5346L169.432 103.531C169.424 103.651 169.317 103.744 169.201 103.744H169.206ZM53.6114 103.318H169.026L174.761 37.748H59.3508L53.6156 103.318H53.6114Z" fill="#E0E0E0"/>
<path d="M170.361 90.5459H54.5144C54.3945 90.5459 54.3089 90.452 54.3175 90.3325C54.326 90.213 54.433 90.1191 54.5486 90.1191H170.391C170.511 90.1191 170.597 90.213 170.588 90.3325C170.579 90.452 170.472 90.5459 170.357 90.5459H170.361Z" fill="#E0E0E0"/>
<path d="M171.513 77.3437H55.6701C55.5503 77.3437 55.4647 77.2498 55.4732 77.1304C55.4818 77.0109 55.5888 76.917 55.7044 76.917H171.547C171.667 76.917 171.752 77.0109 171.744 77.1304C171.735 77.2498 171.628 77.3437 171.513 77.3437Z" fill="#E0E0E0"/>
<path d="M172.668 64.1445H56.8256C56.7058 64.1445 56.6202 64.0506 56.6288 63.9311C56.6373 63.8117 56.7443 63.7178 56.8599 63.7178H172.702C172.822 63.7178 172.908 63.8117 172.899 63.9311C172.891 64.0506 172.784 64.1445 172.668 64.1445Z" fill="#E0E0E0"/>
<path d="M173.824 50.9463H57.9812C57.8613 50.9463 57.7757 50.8524 57.7843 50.7329C57.7928 50.6134 57.8998 50.5195 58.0154 50.5195H173.858C173.978 50.5195 174.063 50.6134 174.055 50.7329C174.046 50.8524 173.939 50.9463 173.824 50.9463Z" fill="#E0E0E0"/>
<path d="M154.722 103.744C154.602 103.744 154.517 103.651 154.525 103.531L160.299 37.5346C160.308 37.4152 160.415 37.3213 160.53 37.3213C160.646 37.3213 160.736 37.4152 160.727 37.5346L154.953 103.531C154.945 103.651 154.838 103.744 154.722 103.744Z" fill="#E0E0E0"/>
<path d="M140.243 103.744C140.123 103.744 140.037 103.651 140.046 103.531L145.82 37.5346C145.828 37.4152 145.935 37.3213 146.051 37.3213C146.166 37.3213 146.256 37.4152 146.248 37.5346L140.474 103.531C140.465 103.651 140.358 103.744 140.243 103.744Z" fill="#E0E0E0"/>
<path d="M125.764 103.744C125.644 103.744 125.558 103.651 125.567 103.531L131.34 37.5346C131.349 37.4152 131.456 37.3213 131.572 37.3213C131.687 37.3213 131.777 37.4152 131.768 37.5346L125.995 103.531C125.986 103.651 125.879 103.744 125.764 103.744Z" fill="#E0E0E0"/>
<path d="M111.284 103.744C111.165 103.744 111.079 103.651 111.088 103.531L116.861 37.5346C116.87 37.4152 116.977 37.3213 117.092 37.3213C117.208 37.3213 117.298 37.4152 117.289 37.5346L111.516 103.531C111.507 103.651 111.4 103.744 111.284 103.744Z" fill="#E0E0E0"/>
<path d="M96.8007 103.744C96.6809 103.744 96.5953 103.651 96.6039 103.531L102.378 37.5346C102.386 37.4152 102.493 37.3213 102.609 37.3213C102.724 37.3213 102.814 37.4152 102.806 37.5346L97.0319 103.531C97.0233 103.651 96.9163 103.744 96.8007 103.744Z" fill="#E0E0E0"/>
<path d="M82.3215 103.744C82.2016 103.744 82.1161 103.651 82.1246 103.531L87.8983 37.5346C87.9069 37.4152 88.0139 37.3213 88.1295 37.3213C88.245 37.3213 88.3349 37.4152 88.3263 37.5346L82.5526 103.531C82.5441 103.651 82.437 103.744 82.3215 103.744Z" fill="#E0E0E0"/>
<path d="M67.8425 103.744C67.7226 103.744 67.637 103.651 67.6456 103.531L73.4193 37.5346C73.4279 37.4152 73.5349 37.3213 73.6504 37.3213C73.766 37.3213 73.8559 37.4152 73.8473 37.5346L68.0736 103.531C68.065 103.651 67.958 103.744 67.8425 103.744Z" fill="#E0E0E0"/>
<path d="M126.547 62.6131H117.7C116.943 62.6131 116.386 62.0029 116.45 61.2476L117.135 53.4173C117.199 52.662 117.867 52.0518 118.625 52.0518H127.471C128.229 52.0518 128.785 52.662 128.721 53.4173L128.036 61.2476C127.972 62.0029 127.304 62.6131 126.547 62.6131Z" fill="#007BFF"/>
<path opacity="0.6" d="M126.547 62.6131H117.7C116.943 62.6131 116.386 62.0029 116.45 61.2476L117.135 53.4173C117.199 52.662 117.867 52.0518 118.625 52.0518H127.471C128.229 52.0518 128.785 52.662 128.721 53.4173L128.036 61.2476C127.972 62.0029 127.304 62.6131 126.547 62.6131Z" fill="white"/>
<path d="M188.273 62.6121H178.972L179.893 52.0508H189.197L185.701 57.3293L188.273 62.6121Z" fill="white"/>
<path d="M188.62 62.8259H178.737L179.7 51.8379H189.583L185.949 57.3298L188.624 62.8217L188.62 62.8259ZM179.204 62.3992H187.922L185.457 57.334L188.812 52.2689H180.094L179.208 62.4035L179.204 62.3992Z" fill="#007BFF"/>
<path d="M154.268 75.8113H145.422C144.664 75.8113 144.108 75.2011 144.172 74.4458L144.857 66.6155C144.921 65.8602 145.588 65.25 146.346 65.25H155.193C155.95 65.25 156.507 65.8602 156.443 66.6155L155.758 74.4458C155.694 75.2011 155.026 75.8113 154.268 75.8113Z" fill="#007BFF"/>
<path opacity="0.4" d="M154.268 75.8113H145.422C144.664 75.8113 144.108 75.2011 144.172 74.4458L144.857 66.6155C144.921 65.8602 145.588 65.25 146.346 65.25H155.193C155.95 65.25 156.507 65.8602 156.443 66.6155L155.758 74.4458C155.694 75.2011 155.026 75.8113 154.268 75.8113Z" fill="white"/>
<path d="M171.221 49.4099H147.728C146.971 49.4099 146.414 48.7997 146.479 48.0444L147.163 40.2141C147.228 39.4588 147.895 38.8486 148.653 38.8486H172.146C172.903 38.8486 173.46 39.4588 173.396 40.2141L172.711 48.0444C172.647 48.7997 171.979 49.4099 171.221 49.4099Z" fill="#007BFF"/>
<path d="M77.5193 60.8252C73.9497 60.8252 70.9751 59.5664 68.8694 57.1554C66.1601 54.0532 65.7493 50.2041 67.8037 47.1104C70.8425 42.5232 78.7776 40.0738 83.9949 40.7523C84.1105 40.7694 84.1832 40.8761 84.1575 40.9913C84.1319 41.1065 84.0163 41.1876 83.9007 41.1748C78.8118 40.5133 71.0993 42.8774 68.1546 47.3195C65.8391 50.8186 67.1788 54.5396 69.2032 56.8567C72.0323 60.0955 75.8929 60.5478 78.6321 60.3558C83.8494 59.9931 89.5675 57.0189 92.8545 52.9608C93.7747 51.8257 95.1871 49.6451 94.3225 47.8188C93.0428 45.1176 88.7714 45.3011 85.1933 45.762C85.0777 45.7791 84.975 45.6937 84.9707 45.5785C84.9665 45.4633 85.0563 45.3566 85.1762 45.3395C87.5644 45.0323 93.1541 44.3111 94.7163 47.6097C95.6793 49.6409 94.1685 51.9921 93.1841 53.2082C89.8157 57.3688 83.9649 60.4113 78.6278 60.7825C78.2554 60.8081 77.8831 60.8209 77.5235 60.8209L77.5193 60.8252Z" fill="#007BFF"/>
<path d="M148.936 73.4559C148.936 73.4559 148.91 73.4559 148.897 73.4559C148.76 73.4431 148.64 73.3663 148.58 73.2425C147.938 71.9325 147.386 71.0876 146.787 70.4987C146.624 70.3408 146.637 70.072 146.808 69.897C146.984 69.7221 147.253 69.7093 147.416 69.8672C147.994 70.4347 148.52 71.1943 149.098 72.2995C150.468 70.8827 152.064 69.4959 153.862 68.1688C154.059 68.0195 154.328 68.0536 154.457 68.2371C154.589 68.4206 154.534 68.6894 154.337 68.8345C152.398 70.2683 150.695 71.7703 149.278 73.3022C149.188 73.4004 149.064 73.4559 148.936 73.4559Z" fill="white"/>
<path d="M133.181 101.722C130.532 101.722 128.563 99.5712 128.794 96.9298C129.025 94.2884 131.37 92.1377 134.02 92.1377C136.669 92.1377 138.638 94.2884 138.407 96.9298C138.176 99.5712 135.83 101.722 133.181 101.722ZM133.943 92.9911C131.764 92.9911 129.838 94.7578 129.65 96.9298C129.462 99.1018 131.079 100.868 133.254 100.868C135.428 100.868 137.358 99.1018 137.546 96.9298C137.735 94.7578 136.117 92.9911 133.943 92.9911Z" fill="#007BFF"/>
<path d="M92.0285 75.2736C89.3792 75.2736 87.4104 73.1229 87.6415 70.4815C87.8726 67.8401 90.218 65.6895 92.8674 65.6895C95.5167 65.6895 97.4855 67.8401 97.2544 70.4815C97.0232 73.1229 94.6778 75.2736 92.0285 75.2736ZM92.7903 66.5429C90.6118 66.5429 88.6858 68.3095 88.4975 70.4815C88.3092 72.6535 89.927 74.4201 92.1012 74.4201C94.2755 74.4201 96.2058 72.6535 96.3941 70.4815C96.5824 68.3095 94.9646 66.5429 92.7903 66.5429Z" fill="#007BFF"/>
<path opacity="0.1" d="M100.383 86.7475H55.914C54.1506 86.7475 52.8281 85.3052 52.9822 83.5471C53.1363 81.789 54.707 80.3467 56.4704 80.3467H100.94C102.703 80.3467 104.025 81.789 103.871 83.5471C103.717 85.3052 102.147 86.7475 100.383 86.7475Z" fill="black"/>
<path d="M41.255 76.5742L42.9242 77.2911L40.6857 80.0264C40.6857 80.0264 40.0651 78.9852 39.7784 77.8715C39.6585 77.4063 39.9324 76.9284 40.399 76.8047L41.255 76.5785V76.5742Z" fill="#FFACA0"/>
<path d="M43.6902 80.2268L42.6887 81.3363C42.3634 81.6948 41.7856 81.6564 41.5117 81.2552L40.6814 80.0263L42.9198 77.291L43.8229 79.4417C43.9342 79.7062 43.8828 80.0135 43.6902 80.2268Z" fill="#FFACA0"/>
<path d="M102.566 85.6722L44.6832 81.102C42.9241 80.9612 41.7215 79.425 42.0168 77.6797C42.3078 75.9387 43.9899 74.6244 45.7489 74.7652L103.632 79.3354C105.391 79.4762 106.593 81.0124 106.298 82.7577C106.007 84.4987 104.325 85.813 102.566 85.6722Z" fill="#007BFF"/>
<path d="M61.7219 58.7426C62.4452 60.3684 63.1857 62.0368 63.9389 63.6626C64.6879 65.2799 65.4584 66.927 66.2887 68.3352C66.4941 68.6809 66.7038 68.9966 66.875 69.2057C67.1318 69.5087 67.4186 69.8202 67.7096 70.1402C68.3045 70.776 68.938 71.4119 69.5757 72.0519C70.8554 73.3278 72.1566 74.6251 73.4234 75.9479L72.1266 77.6164C70.4959 76.6818 68.938 75.6705 67.4186 74.5696C66.6568 74.0191 65.9077 73.4473 65.1673 72.8243C64.7949 72.5171 64.4269 72.18 64.0502 71.8172C63.5965 71.3564 63.2755 70.9169 62.9759 70.4987C61.8161 68.8217 60.9515 67.1745 60.0955 65.4933C59.2566 63.812 58.4948 62.1307 57.78 60.3854L61.7176 58.7383L61.7219 58.7426Z" fill="#FFACA0"/>
<path d="M47.568 58.4985C46.5964 60.0816 45.5992 61.6733 44.6019 63.2479L41.6273 67.976L41.2635 68.5648L41.2165 68.6374L41.1951 68.6715V68.68C41.1951 68.68 41.1779 68.6971 41.1694 68.7056C41.1523 68.7227 41.1351 68.7782 41.1137 68.8081C41.0367 69.0001 40.9639 69.3329 40.9297 69.6956C40.8698 70.4339 40.9126 71.3001 41.0025 72.1706C41.1908 73.9159 41.5332 75.7508 41.9013 77.5302L39.9196 78.2642C39.0208 76.5018 38.3018 74.7181 37.7839 72.768C37.5357 71.7866 37.3217 70.7838 37.2831 69.6402C37.2703 69.0641 37.2831 68.4539 37.4672 67.7413C37.5271 67.5535 37.5699 67.3786 37.6555 67.1823L37.7882 66.8878L37.8438 66.7726L37.8866 66.6915L38.2119 66.0515C39.0893 64.3488 40.0138 62.6889 40.9725 61.0503C41.9312 59.4117 42.9199 57.803 43.9685 56.207L47.5723 58.4942L47.568 58.4985Z" fill="#FFACA0"/>
<path d="M58.8927 46.6621C58.8114 46.8754 58.8585 47.093 58.9954 47.1485C59.1324 47.204 59.3079 47.0802 59.3892 46.8669C59.4705 46.6535 59.4235 46.4359 59.2865 46.3804C59.1495 46.3249 58.9741 46.4487 58.8927 46.6621Z" fill="#263238"/>
<path d="M58.8415 47.084C58.8415 47.084 58.8629 48.5092 59.1668 49.32C58.6661 49.5163 58.0925 49.0938 58.0925 49.0938L58.8415 47.084Z" fill="#FF5652"/>
<path d="M59.6761 45.4153C59.6504 45.4153 59.6247 45.3982 59.6033 45.3811C59.5862 45.3683 59.2267 45.0398 58.6703 45.1806C58.5975 45.1977 58.5248 45.155 58.5077 45.0824C58.4905 45.0099 58.5333 44.9374 58.6061 44.9203C59.3123 44.7453 59.7703 45.1678 59.7874 45.1849C59.8387 45.2361 59.843 45.3171 59.7917 45.3726C59.7617 45.4068 59.7146 45.4196 59.6761 45.411V45.4153Z" fill="#263238"/>
<path d="M51.0904 47.084C50.825 49.3797 51.2616 52.2729 49.6865 53.425C49.6865 53.425 50.0161 55.58 53.8039 56.1432C57.9683 56.762 56.0209 54.3638 56.0209 54.3638C53.8082 53.4805 54.0521 51.7992 54.6214 50.2716L51.0861 47.084H51.0904Z" fill="#FFACA0"/>
<path d="M48.3426 54.8671C48.2913 53.8088 48.3469 52.2086 49.0017 51.9782C49.7208 51.7265 53.9708 52.0636 56.1023 53.9881C55.3019 55.4944 55.3747 57.0861 55.3747 57.0861L48.3426 54.8671Z" fill="#263238"/>
<path d="M35.34 150.043C34.9719 150.043 34.4326 149.829 34.2314 149.727C34.21 149.714 34.1929 149.688 34.1972 149.663C34.1972 149.637 34.2143 149.616 34.24 149.603C34.2742 149.59 35.1345 149.262 35.5154 149.449C35.6053 149.492 35.6652 149.56 35.6909 149.654C35.7423 149.825 35.6824 149.919 35.6267 149.966C35.5625 150.021 35.4598 150.043 35.34 150.043ZM34.4369 149.676C34.8306 149.846 35.3913 149.983 35.5411 149.863C35.554 149.851 35.601 149.816 35.5625 149.693C35.5454 149.637 35.5112 149.599 35.4555 149.569C35.2287 149.458 34.7322 149.577 34.4369 149.676Z" fill="#007BFF"/>
<path d="M34.2657 149.736C34.2657 149.736 34.2315 149.728 34.2186 149.715C34.2015 149.698 34.1972 149.672 34.2015 149.651C34.2101 149.617 34.4455 148.84 34.8178 148.656C34.9163 148.61 35.0147 148.601 35.1131 148.639C35.2672 148.699 35.2843 148.806 35.2801 148.866C35.2629 149.186 34.591 149.646 34.2828 149.732C34.2785 149.732 34.27 149.732 34.2657 149.732V149.736ZM34.9847 148.75C34.9505 148.75 34.912 148.759 34.8777 148.776C34.6552 148.887 34.4669 149.305 34.3727 149.561C34.6937 149.42 35.1388 149.053 35.1474 148.861C35.1474 148.84 35.1474 148.797 35.0661 148.763C35.0404 148.755 35.0104 148.746 34.9847 148.746V148.75Z" fill="#007BFF"/>
<path d="M56.8555 151.285C56.5173 151.285 56.1707 151.242 55.9909 151.208C55.9652 151.204 55.9438 151.182 55.9395 151.153C55.9353 151.127 55.9481 151.097 55.9695 151.084C56.1107 151.003 57.3605 150.286 57.6644 150.781C57.75 150.918 57.72 151.016 57.6772 151.076C57.5659 151.238 57.215 151.285 56.8555 151.285ZM56.2006 151.106C56.7313 151.178 57.4418 151.17 57.5659 150.999C57.5745 150.982 57.6045 150.943 57.5488 150.85C57.3776 150.568 56.6158 150.888 56.2006 151.106Z" fill="#007BFF"/>
<path d="M55.9996 151.208C55.9996 151.208 55.974 151.208 55.9611 151.195C55.944 151.182 55.9312 151.161 55.9312 151.135C55.9312 151.101 55.9782 150.346 56.3249 150.051C56.4319 149.962 56.556 149.923 56.693 149.936C56.8813 149.953 56.937 150.051 56.9498 150.128C57.0054 150.452 56.3634 151.045 56.0253 151.199C56.0168 151.199 56.0082 151.203 55.9996 151.203V151.208ZM56.6459 150.068C56.5603 150.068 56.4876 150.098 56.4191 150.154C56.1922 150.346 56.1109 150.802 56.081 151.02C56.4191 150.815 56.8556 150.346 56.8214 150.149C56.8214 150.132 56.8086 150.081 56.6844 150.068C56.6716 150.068 56.6588 150.068 56.6459 150.068Z" fill="#007BFF"/>
<path d="M52.905 151.139H55.7213L55.7512 144.632H52.9307L52.905 151.139Z" fill="#FFACA0"/>
<path d="M31.0771 149.125L33.7179 149.736L35.9349 143.301L33.2942 142.69L31.0771 149.125Z" fill="#FFACA0"/>
<path d="M34.1287 149.297L31.06 148.529C30.9487 148.499 30.8331 148.554 30.786 148.657L29.7289 150.965C29.6176 151.204 29.7674 151.494 30.0242 151.554C31.0985 151.806 31.6335 151.87 32.986 152.211C33.8163 152.42 35.5112 152.937 36.6582 153.222C37.7796 153.504 38.1947 152.407 37.7496 152.186C35.7423 151.196 35.0832 150.355 34.5396 149.578C34.4412 149.437 34.2956 149.339 34.133 149.297H34.1287Z" fill="#263238"/>
<path d="M55.6914 150.815H52.614C52.4985 150.815 52.4043 150.897 52.3829 151.007L51.925 153.504C51.8779 153.764 52.0833 154.007 52.3487 154.003C53.4572 153.986 55.0579 153.918 56.4532 153.918C58.0839 153.918 58.1181 154.007 60.0313 154.007C61.1869 154.007 61.4651 152.842 60.9772 152.736C58.7558 152.253 58.3321 152.202 56.3847 151.033C56.1707 150.905 55.9396 150.815 55.6956 150.815H55.6914Z" fill="#263238"/>
<path d="M46.3867 53.2335C43.7075 53.4469 39.9282 60.1464 39.9282 60.1464L44.7817 64.5288C44.7817 64.5288 47.0758 62.0368 48.8948 59.1351C50.8037 56.0968 49.1259 53.0159 46.3867 53.2335Z" fill="#007BFF"/>
<path opacity="0.6" d="M46.3867 53.2335C43.7075 53.4469 39.9282 60.1464 39.9282 60.1464L44.7817 64.5288C44.7817 64.5288 47.0758 62.0368 48.8948 59.1351C50.8037 56.0968 49.1259 53.0159 46.3867 53.2335Z" fill="white"/>
<path opacity="0.2" d="M47.7563 58.0635L44.5505 64.3192L44.7774 64.5283C44.7774 64.5283 46.0186 63.1756 47.401 61.3108L47.7563 58.0677V58.0635Z" fill="black"/>
<path d="M59.813 68.2533C59.3294 71.3513 58.5675 75.1832 57.3905 79.9028L42.479 77.6923C42.616 75.563 44.8972 66.0429 44.4478 55.8358C44.3836 54.3977 45.5478 53.2029 46.9901 53.237C47.7263 53.2541 48.5395 53.2925 49.3313 53.3736C51.2444 53.5656 54.0093 53.9113 55.6657 54.3124C57.8528 54.8415 59.8686 55.7248 59.8686 55.7248C59.8686 55.7248 60.9386 57.2909 60.3608 63.8069C60.2453 65.0913 60.0698 66.5678 59.8087 68.2618L59.813 68.2533Z" fill="#007BFF"/>
<path opacity="0.6" d="M59.813 68.2533C59.3294 71.3513 58.5675 75.1832 57.3905 79.9028L42.479 77.6923C42.616 75.563 44.8972 66.0429 44.4478 55.8358C44.3836 54.3977 45.5478 53.2029 46.9901 53.237C47.7263 53.2541 48.5395 53.2925 49.3313 53.3736C51.2444 53.5656 54.0093 53.9113 55.6657 54.3124C57.8528 54.8415 59.8686 55.7248 59.8686 55.7248C59.8686 55.7248 60.9386 57.2909 60.3608 63.8069C60.2453 65.0913 60.0698 66.5678 59.8087 68.2618L59.813 68.2533Z" fill="white"/>
<path opacity="0.2" d="M59.8129 68.2536C58.6016 67.4897 57.4675 63.9778 57.9768 62.1387L60.365 63.8029C60.2494 65.0873 60.074 66.5638 59.8129 68.2578V68.2536Z" fill="black"/>
<path d="M56.4619 57.6202C55.6915 60.1805 60.3567 67.7206 60.3567 67.7206L65.9335 64.8147C65.9335 64.8147 64.6666 61.0169 62.6593 58.0939C60.4209 54.8295 57.3264 54.7313 56.4619 57.6159V57.6202Z" fill="#007BFF"/>
<path opacity="0.6" d="M56.4619 57.6202C55.6915 60.1805 60.3567 67.7206 60.3567 67.7206L65.9335 64.8147C65.9335 64.8147 64.6666 61.0169 62.6593 58.0939C60.4209 54.8295 57.3264 54.7313 56.4619 57.6159V57.6202Z" fill="white"/>
<path opacity="0.2" d="M55.7469 144.637L55.7341 147.991H52.9136L52.9307 144.637H55.7469Z" fill="black"/>
<path opacity="0.2" d="M33.2941 142.69L35.9349 143.301L34.7878 146.616L32.1514 146.01L33.2941 142.69Z" fill="black"/>
<path d="M52.0661 43.303C51.2487 45.9785 50.6366 47.4977 51.4413 49.3795C52.6482 52.2086 56.2734 52.3324 57.8613 49.9854C59.2908 47.8689 60.3865 43.8492 58.2507 41.7625C56.1493 39.7058 52.8836 40.6275 52.0704 43.303H52.0661Z" fill="#FFACA0"/>
<path d="M56.3762 46.2477C56.0552 47.6175 55.2206 50.0882 53.162 50.3741C52.0192 50.532 50.1103 50.1949 49.9306 49.2732C49.7508 48.3472 50.4656 48.4752 50.2858 47.7199C50.106 46.9646 49.1687 44.3275 50.2344 42.4457C48.7536 42.5694 49.7722 40.3846 52.4258 39.8683C51.604 39.5482 51.9978 37.3207 56.098 38.3747C58.0155 38.8655 59.4407 39.6208 59.6119 40.6449C61.3582 41.3789 61.8161 43.2265 60.7333 43.905C59.6847 44.5579 58.0882 43.8154 58.0882 43.8154C58.0882 43.8154 58.8287 47.7455 56.372 46.252L56.3762 46.2477Z" fill="#263238"/>
<path d="M55.2591 46.0346C55.2078 46.6832 55.4475 47.319 55.7856 47.75C56.2949 48.3944 56.4661 48.4029 56.6758 47.6818C56.8641 47.0331 57.3349 45.5823 56.6544 45.194C55.9825 44.8142 55.3148 45.2921 55.2549 46.0346H55.2591Z" fill="#FFACA0"/>
<path d="M52.1005 79.1176C52.1005 79.1176 49.785 101.145 48.3426 109.189C46.7633 117.996 36.2388 146.33 36.2388 146.33L31.2312 145.076C33.8078 135.274 37.6041 116.985 39.9196 109.987C41.6658 99.3484 39.9282 85.9793 42.479 77.6924L52.1005 79.1176Z" fill="#263238"/>
<path d="M37.4285 144.675C37.4499 144.679 36.5041 146.48 36.5041 146.48L30.8716 145.072L31.3381 143.369L37.4285 144.675Z" fill="#007BFF"/>
<path opacity="0.2" d="M50.6709 87.708C50.8421 87.6738 51.0047 87.6696 51.1588 87.6952C50.4141 94.2752 49.3655 103.07 48.5309 108.097C47.8418 100.787 47.1955 88.3907 50.6709 87.708Z" fill="black"/>
<path d="M57.3863 79.9026C57.3863 79.9026 58.5547 103.449 58.7259 112.013C58.9014 120.923 56.7614 147.341 56.7614 147.341H51.9892C51.9892 147.341 50.1873 122.848 51.1589 110.9C50.0076 101.798 47.5894 78.4561 47.5894 78.4561L57.3906 79.9069L57.3863 79.9026Z" fill="#263238"/>
<path d="M74.6219 75.6783C73.9414 75.6185 73.0254 75.7124 72.3364 76.0026L71.9897 76.5744C71.6944 77.0608 71.934 77.6924 72.4776 77.8673L74.1511 78.4007L74.9686 78.6482C75.3238 78.7549 75.7047 78.6269 75.923 78.3239L76.274 77.8375C76.5308 77.4833 76.4751 76.9883 76.1498 76.6981L75.3966 76.0196C75.1826 75.8276 74.9129 75.7081 74.6262 75.6825L74.6219 75.6783Z" fill="#FFACA0"/>
<path d="M57.6046 145.443C57.626 145.443 57.412 147.419 57.412 147.419H51.604L51.3772 145.657L57.6003 145.443H57.6046Z" fill="#007BFF"/>
</g>
<defs>
<clipPath id="clip0_852_4466">
<rect width="214" height="159" fill="white"/>
</clipPath>
</defs>
</svg>
