<svg width="20" height="20" viewBox="0 0 20 20" fill="none" xmlns="http://www.w3.org/2000/svg">
<path d="M16.875 8.74952V16.2495C16.875 16.581 16.7433 16.899 16.5089 17.1334C16.2745 17.3678 15.9565 17.4995 15.625 17.4995H4.375C4.04348 17.4995 3.72554 17.3678 3.49112 17.1334C3.2567 16.899 3.125 16.581 3.125 16.2495V8.74952C3.125 8.418 3.2567 8.10005 3.49112 7.86563C3.72554 7.63121 4.04348 7.49952 4.375 7.49952H6.25C6.41576 7.49952 6.57473 7.56536 6.69194 7.68257C6.80915 7.79978 6.875 7.95876 6.875 8.12452C6.875 8.29028 6.80915 8.44925 6.69194 8.56646C6.57473 8.68367 6.41576 8.74952 6.25 8.74952H4.375V16.2495H15.625V8.74952H13.75C13.5842 8.74952 13.4253 8.68367 13.3081 8.56646C13.1908 8.44925 13.125 8.29028 13.125 8.12452C13.125 7.95876 13.1908 7.79978 13.3081 7.68257C13.4253 7.56536 13.5842 7.49952 13.75 7.49952H15.625C15.9565 7.49952 16.2745 7.63121 16.5089 7.86563C16.7433 8.10005 16.875 8.418 16.875 8.74952ZM7.31719 5.4417L9.375 3.38311V10.6245C9.375 10.7903 9.44085 10.9492 9.55806 11.0665C9.67527 11.1837 9.83424 11.2495 10 11.2495C10.1658 11.2495 10.3247 11.1837 10.4419 11.0665C10.5592 10.9492 10.625 10.7903 10.625 10.6245V3.38311L12.6828 5.4417C12.8001 5.55898 12.9591 5.62486 13.125 5.62486C13.2909 5.62486 13.4499 5.55898 13.5672 5.4417C13.6845 5.32443 13.7503 5.16537 13.7503 4.99952C13.7503 4.83366 13.6845 4.6746 13.5672 4.55733L10.4422 1.43233C10.3841 1.37422 10.3152 1.32812 10.2393 1.29667C10.1635 1.26521 10.0821 1.24902 10 1.24902C9.91787 1.24902 9.83654 1.26521 9.76066 1.29667C9.68479 1.32812 9.61586 1.37422 9.55781 1.43233L6.43281 4.55733C6.31554 4.6746 6.24965 4.83366 6.24965 4.99952C6.24965 5.16537 6.31554 5.32443 6.43281 5.4417C6.55009 5.55898 6.70915 5.62486 6.875 5.62486C7.04085 5.62486 7.19991 5.55898 7.31719 5.4417Z" fill="white"/>
</svg>
