<svg width="32" height="32" viewBox="0 0 32 32" fill="none" xmlns="http://www.w3.org/2000/svg">
<g id="172626_user_male_icon 3" clip-path="url(#clip0_125_802)">
<path id="Vector" d="M16.0001 31.36C24.4832 31.36 31.3601 24.4831 31.3601 16C31.3601 7.51692 24.4832 0.640015 16.0001 0.640015C7.51704 0.640015 0.640137 7.51692 0.640137 16C0.640137 24.4831 7.51704 31.36 16.0001 31.36Z" stroke="white" stroke-width="2" stroke-miterlimit="10" stroke-linecap="round"/>
<circle id="Ellipse 293" cx="16" cy="16" r="16" fill="#D9D9D9"/>
<path id="Vector_2" d="M19.1569 22.7379C19.0634 21.7062 19.0993 20.9862 19.0993 20.0435C19.5665 19.7984 20.4036 18.2355 20.545 16.9152C20.9124 16.8851 21.4916 16.5267 21.6612 15.1117C21.7527 14.352 21.3892 13.9245 21.1678 13.7901C21.7655 11.9923 23.0071 6.4307 18.8714 5.85598C18.4458 5.10846 17.3559 4.73022 15.9396 4.73022C10.273 4.83454 9.58952 9.00927 10.8318 13.7901C10.611 13.9245 10.2474 14.352 10.3383 15.1117C10.5086 16.5267 11.0871 16.8851 11.4545 16.9152C11.5953 18.2349 12.4657 19.7984 12.9342 20.0435C12.9342 20.9862 12.9694 21.7062 12.8759 22.7379C12.0689 24.9075 7.92424 25.0771 5.5332 27.1693C8.03304 29.6864 12.0842 31.4867 16.3594 31.4867C20.6346 31.4867 25.6599 28.1113 26.4964 27.1904C24.1201 25.079 19.9658 24.9152 19.1569 22.7379Z" fill="white"/>
</g>
<defs>
<clipPath id="clip0_125_802">
<rect width="32" height="32" fill="white"/>
</clipPath>
</defs>
</svg>
