<svg width="24" height="24" viewBox="0 0 24 24" fill="none" xmlns="http://www.w3.org/2000/svg">
<g opacity="0.9">
<path d="M21.2586 6.46911C21.2131 6.35666 21.141 6.25693 21.0485 6.17846C20.956 6.09999 20.8458 6.04513 20.7275 6.01859C20.6091 5.99204 20.4861 5.9946 20.3689 6.02604C20.2518 6.05748 20.144 6.11687 20.0548 6.19911L16.2767 9.68567L14.6614 9.3388L14.3145 7.72348L17.8011 3.94536C17.8833 3.85619 17.9427 3.74841 17.9741 3.63126C18.0056 3.5141 18.0081 3.39107 17.9816 3.27271C17.955 3.15435 17.9002 3.0442 17.8217 2.9517C17.7432 2.85919 17.6435 2.7871 17.5311 2.74161C16.5063 2.32708 15.3954 2.17056 14.2961 2.28581C13.1967 2.40106 12.1424 2.78456 11.2259 3.40259C10.3094 4.02063 9.55871 4.8543 9.03979 5.83034C8.52086 6.80639 8.2496 7.89494 8.24982 9.00036C8.2486 9.93381 8.4401 10.8575 8.81232 11.7135L3.16763 16.5941C3.15357 16.6054 3.14044 16.6185 3.12732 16.6307C2.56464 17.1933 2.24854 17.9565 2.24854 18.7522C2.24854 19.1462 2.32614 19.5364 2.47692 19.9004C2.6277 20.2644 2.84871 20.5952 3.12732 20.8738C3.40592 21.1524 3.73668 21.3734 4.1007 21.5242C4.46471 21.675 4.85487 21.7526 5.24888 21.7526C6.04462 21.7526 6.80777 21.4365 7.37044 20.8738C7.38263 20.8616 7.39575 20.8475 7.407 20.8344L12.2867 15.1879C13.3146 15.6391 14.4388 15.8268 15.5575 15.734C16.6763 15.6413 17.7542 15.271 18.6938 14.6567C19.6333 14.0423 20.4049 13.2034 20.9385 12.2157C21.4721 11.2281 21.7509 10.1229 21.7498 9.00036C21.7513 8.13278 21.5844 7.27316 21.2586 6.46911ZM14.9998 14.2504C14.1121 14.2491 13.2391 14.0234 12.462 13.5941C12.3115 13.5109 12.1369 13.482 11.9676 13.5123C11.7983 13.5425 11.6445 13.6299 11.532 13.76L6.29138 19.8294C6.00778 20.0989 5.63016 20.2468 5.23902 20.2418C4.84787 20.2368 4.47416 20.0792 4.19756 19.8026C3.92096 19.526 3.76335 19.1523 3.75834 18.7612C3.75334 18.37 3.90132 17.9924 4.17075 17.7088L10.2354 12.4691C10.3658 12.3566 10.4534 12.2026 10.4836 12.0331C10.5138 11.8636 10.4848 11.6888 10.4014 11.5382C9.92328 10.6735 9.69891 9.69138 9.75406 8.70484C9.80922 7.7183 10.1417 6.76735 10.7132 5.96131C11.2847 5.15528 12.072 4.52688 12.9847 4.14837C13.8974 3.76986 14.8984 3.6566 15.8726 3.82161L12.9476 6.9913C12.8662 7.07958 12.8072 7.18612 12.7756 7.30195C12.7439 7.41778 12.7406 7.53951 12.7658 7.65692L13.2964 10.1254C13.3267 10.2665 13.3972 10.396 13.4993 10.4981C13.6014 10.6002 13.7308 10.6706 13.872 10.701L16.3423 11.2316C16.4597 11.2568 16.5815 11.2534 16.6973 11.2218C16.8131 11.1901 16.9197 11.1311 17.0079 11.0497L20.1776 8.12473C20.304 8.87755 20.2648 9.64886 20.0629 10.385C19.861 11.1212 19.5011 11.8045 19.0083 12.3875C18.5156 12.9705 17.9017 13.4391 17.2094 13.7608C16.5172 14.0825 15.7632 14.2496 14.9998 14.2504Z" fill="white"/>
</g>
</svg>
